<svg xmlns="http://www.w3.org/2000/svg" viewBox="0 0 30 30"><title>icon-44</title><g id="Layer_43" data-name="Layer 43"><path class="roadmap-background-circle" d="M30,15A15,15,0,1,1,15,0,15,15,0,0,1,30,15" fill="#999"/><path d="M17,17.3v7.43l9.65-2.64V14.66Zm8.31,4.13-7,1.9V18l7-1.9Z" fill="#fff"/><path d="M22.49,6.79h.09L8.86,4.32C4.79,4,3.33,12.89,3.33,12.89l1.61.43v-.07A4.48,4.48,0,0,1,5,12.6l-.27-.07S6,5,9.45,5.19L19.86,7.06s-1.87.23-3.8,8.45l-2.61-.68a4.62,4.62,0,0,1,.05.65v.1l3.08.81,10.09-2.75s-.74-6.37-4.18-6.85m-.5.94c3,0,3.66,5.49,3.66,5.49l-8.06,2.2S19,7.73,22,7.73" fill="#fff"/><polygon points="13.5 16.63 13.5 17.38 14.68 17.7 14.68 23.63 4.61 20.9 4.61 14.97 4.94 15.06 4.94 14.31 3.33 13.87 3.33 21.3 15.95 24.73 15.95 17.3 13.5 16.63" fill="#fff"/><path d="M9.22,11a2.56,2.56,0,0,0-3.43,2.54V17l3.43.9,3.44.89V15.35A4.77,4.77,0,0,0,9.22,11m.92,6-1.83-.48V11.93l1.83.48Z" fill="#fff"/></g></svg>