<svg xmlns="http://www.w3.org/2000/svg" viewBox="0 0 40 40">
    <path d="M 14.46 5.535 s -0.72 -0.915 0 -1.5 S 16.5 4.185 16.5 4.185 s 0 -1.245 1.035 -1.305 a 1.5 1.5 90 0 1 1.41 1.065 s 0.645 -1.2 1.725 -0.9 a 1.29 1.29 90 0 1 0.9 1.5 s 1.32 -0.435 1.83 0.285 s -0.435 1.5 -0.435 1.5 s 1.155 0 1.155 0.825 s -1.23 0.63 -1.23 0.63 s 0.945 0.99 0 1.5 a 1.215 1.215 90 0 1 -1.59 -0.405 s 0.36 1.11 -0.69 1.305 a 1.335 1.335 90 0 1 -1.5 -0.87 s -0.21 1.2 -0.9 1.065 s -1.095 -0.99 -1.095 -0.99 s -0.69 1.005 -1.5 0.6 s -0.165 -1.5 -0.165 -1.5 s -1.305 0.48 -1.5 -0.165 s 0.42 -1.29 0.42 -1.29 s -0.93 0.09 -1.02 -0.705 S 14.46 5.535 14.46 5.535 Z" fill="#fff"/>
    <ellipse cx="15" cy="11.57" rx="0.92" ry="0.59" fill="#fff"/>
    <path d="M 11.19 17.76 H 13.305 c 0.765 0 1.5 0 1.5 -1.065 c 0 -1.89 -0.66 -1.35 -0.72 -2.01 c 0 -0.42 1.5 -0.75 1.845 1.5 A 2.595 2.595 90 0 1 13.305 19.5 v 6.78 H 9.075 V 20.295 c -0.285 -0.555 -0.885 0.165 -0.93 0.78 a 22.98 22.98 90 0 1 -0.42 3.81 c -0.15 0.39 -1.245 0.48 -1.245 0 S 6.855 19.5 7.5 18.69 a 3.21 3.21 90 0 1 2.415 -0.93 Z m 0 -5.07 A 2.115 2.115 90 1 0 13.305 14.805 A 2.115 2.115 90 0 0 11.19 12.69 Z" fill="#fff"/>
</svg>