<svg xmlns="http://www.w3.org/2000/svg" viewBox="0 0 30 30"><g id="Layer_15" data-name="Layer 15"><path class="roadmap-background-circle" d="M30,15A15,15,0,1,1,15,0,15,15,0,0,1,30,15" fill="#999"/>    <g transform-origin="15px 15px" transform="rotate(-90)">
    <!-- normal background circle -->
    <circle class="circle-bg" stroke="#c0c0c0" fill="none" stroke-width="3" cx="15" cy="15" r="18"></circle>
    <!-- progress circle, dashoffset initialized to be hidden before JS changes it; color must change along with background circle -->
    <circle class="roadmap-circle-progress" stroke="#4156A1" fill="none" stroke-width="3" stroke-dasharray="113.0973355292" stroke-dashoffset="113.0973355292" cx="15" cy="15" r="18"></circle>
</g><path d="M8.66,13.14H11c.86.06,2.36-.17,2.33-1.4-.05-2.33.47-2.8.93-2.8s.47.47.47,2.8c0,2-2.06,3.16-3.73,3.23v7.49H6.33V15.93c-.31-.6-1,.18-1,.87A26.06,26.06,0,0,1,4.84,21c-.16.44-1.37.53-1.37.07s.42-5.93,1.12-6.9a3.53,3.53,0,0,1,2.67-1Zm0-5.59A2.33,2.33,0,1,0,11,9.87,2.32,2.32,0,0,0,8.66,7.55" fill="#fff"/><path d="M23.09,14a3.18,3.18,0,0,1,2.42.93c.64.88,1,5.83,1,6.25s-1.1.34-1.24-.06a22.32,22.32,0,0,1-.42-3.8c-.05-.62-.65-1.34-.93-.79v5.92H19.71V15.67c-1.51-.06-3.37-1.08-3.37-2.93,0-2.11,0-2.53.42-2.53s.89.42.84,2.53c0,1.12,1.34,1.33,2.11,1.27h3.38Zm-3.38-3a2.12,2.12,0,1,0,2.11-2.11,2.12,2.12,0,0,0-2.11,2.11" fill="#fff"/></g></svg>