<svg xmlns="http://www.w3.org/2000/svg" viewBox="0 0 40 40">
    <g>
        <path d="m21.6,4.9v-1.5c0-.2-.1-.3-.3-.3h-.1c-.2,0-.3.1-.3.3v1.5h-.9v-1.5c0-.2-.1-.3-.3-.3h-.1c-.2,0-.3.1-.3.3v1.5h-.9v-1.5c0-.2-.1-.3-.3-.3h-.1c-.2,0-.3.1-.3.3v1.5h-.9v-1.5c0-.2-.1-.3-.3-.3h-.1c-.2,0-.3.1-.3.3v1.5h-1v-1.5c0-.2-.1-.3-.3-.3h-.1c-.2,0-.3.1-.3.3v1.5h-.9v-1.5c0-.2-.1-.3-.3-.3h-.1c-.2,0-.3.1-.3.3v1.5h-.9v-1.5c0-.2-.1-.3-.3-.3h-.1c-.2,0-.3.1-.3.3v1.5h-1v-1.5c0-.2-.1-.3-.3-.3h-.1c-.2,0-.3.1-.3.3v1.5h-.9v-1.5c0-.2-.1-.3-.3-.3h-.1c-.2,0-.3.1-.3.3v1.5h-.5v21.7h14.7V4.9h-.5Zm-2.3,1.1v.4c0,.2.1.3.3.3h.1c.2,0,.3-.1.3-.3v-.3c.07.08.1.18.1.3,0,.3-.2.5-.5.5s-.5-.2-.5-.5c0-.18.07-.33.2-.4Zm-1.6,0v.4c0,.2.1.3.3.3h.1c.2,0,.3-.1.3-.3v-.3c.07.08.1.18.1.3,0,.3-.2.5-.5.5s-.5-.2-.5-.5c0-.18.07-.33.2-.4Zm-1.6,0v.4c0,.2.1.3.3.3h.1c.2,0,.3-.1.3-.3v-.3c.07.08.1.18.1.3,0,.3-.2.5-.5.5s-.5-.2-.5-.5c0-.18.07-.33.2-.4Zm-1.7,0v.4c0,.2.1.3.3.3h.1c.2,0,.3-.1.3-.3v-.3c.07.08.1.18.1.3,0,.3-.2.5-.5.5s-.5-.2-.5-.5c0-.18.07-.33.2-.4Zm-1.6,0v.4c0,.2.1.3.3.3h.1c.2,0,.3-.1.3-.3v-.3c.07.08.1.18.1.3,0,.3-.2.5-.5.5s-.5-.2-.5-.5c0-.18.07-.33.2-.4Zm-1.6,0v.4c0,.2.1.3.3.3h.1c.2,0,.3-.1.3-.3v-.3c.07.08.1.18.1.3,0,.3-.2.5-.5.5s-.5-.2-.5-.5c0-.18.07-.33.2-.4Zm-1.7.1v.3c0,.2.1.3.3.3h.1c.2,0,.3-.1.3-.3v-.4c.13.07.2.22.2.4,0,.3-.2.5-.5.5s-.5-.2-.5-.5c0-.12.03-.22.1-.3Zm-1.6-.1v.4c0,.2.1.3.3.3h.1c.2,0,.3-.1.3-.3v-.3c.07.08.1.18.1.3,0,.3-.2.5-.5.5s-.5-.2-.5-.5c0-.18.07-.33.2-.4Zm13.7,4.5h-12.1v1.5h8.66l.34-.6,1.07.6h2.03v.9h-1.74s-.01.01-.01.02c-.01.02-.03.04-.04.06,0,.01-.01.02-.01.02l-1.7-.9-.3.3,1.7,1-.44.8h2.54v.9h-3.03l-.72,1.3h3.75v.9h-4.28l-.84,1.5h5.12v.9h-5.63l-1.01,1.8h6.64v.9h-7.14l-.57,1.01-.69.09-.2-.4h-.4l-.3-.7h-2.8v1.5h2.44l-.14.6h.4l.3.2.93-.8h8.17v.9h-9.16l-.936.742.186-.742h-2.19v1.2h-.7v-1.2h-1.1v-.9h1.1v-1.5h-1.1v-.9h1.1v-1.8h-1.1v-.9h1.1v-1.5h-1.1v-.9h1.1v-1.3h-1.1v-.9h1.1v-1.3h-1.1v-.9h1.1v-1.5h-1.1v-.9h1.1v-2h.7v2h12.1v.9Zm-.3-3.5c-.3,0-.5-.2-.5-.5,0-.12.03-.22.1-.3v.2c0,.2.1.3.3.3h.1c.2,0,.3-.1.3-.3v-.3c.13.07.2.22.2.4,0,.3-.2.5-.5.5Z" style="fill: #fff;"></path>
        <polygon points="13.79 19.7 12.8 21.5 9.5 21.5 9.5 19.7 13.79 19.7" style="fill: #fff;"></polygon>
        <polygon points="15.11 17.3 14.28 18.8 9.5 18.8 9.5 17.3 15.11 17.3" style="fill: #fff;"></polygon>
        <polygon points="16.32 15.1 15.6 16.4 9.5 16.4 9.5 15.1 16.32 15.1" style="fill: #fff;"></polygon>
        <polygon points="17.53 12.9 16.81 14.2 9.5 14.2 9.5 12.9 17.53 12.9" style="fill: #fff;"></polygon>
    </g>
</svg>