<svg xmlns="http://www.w3.org/2000/svg" viewBox="0 0 30 30"><g id="Layer_49" data-name="Layer 49"><path class="roadmap-background-circle" d="M30,15A15,15,0,1,1,15,0,15,15,0,0,1,30,15" fill="#999"/>    <g transform-origin="15px 15px" transform="rotate(-90)">
    <!-- normal background circle -->
    <circle class="circle-bg" stroke="#c0c0c0" fill="none" stroke-width="3" cx="15" cy="15" r="18"></circle>
    <!-- progress circle, dashoffset initialized to be hidden before JS changes it; color must change along with background circle -->
    <circle class="roadmap-circle-progress" stroke="#4156A1" fill="none" stroke-width="3" stroke-dasharray="113.0973355292" stroke-dashoffset="113.0973355292" cx="15" cy="15" r="18"></circle>
</g><path d="M14.21,14.21c-2.08,2.08-3.42,4.12-3,4.56s2.48-.9,4.56-3,3.42-4.12,3-4.56-2.48.9-4.56,3" fill="#fff"/><path d="M12.43,20.8a9.34,9.34,0,0,1-.79.91c-1.76,1.76-3.93,2.43-4.86,1.51s-.25-3.1,1.51-4.86a7.32,7.32,0,0,1,.92-.78c.47-.65,1-1.33,1.6-2a8.93,8.93,0,0,0-1,.51,11.32,11.32,0,0,0-2.12,1.67c-2.41,2.42-3.34,5.41-2.07,6.68s4.26.34,6.68-2.07a11,11,0,0,0,1.67-2.12,8.93,8.93,0,0,0,.51-1c-.7.59-1.38,1.13-2,1.61" fill="#fff"/><path d="M17.58,9.2a8,8,0,0,1,.78-.91c1.76-1.76,3.93-2.43,4.86-1.51s.25,3.1-1.51,4.86a8.3,8.3,0,0,1-.91.79c-.48.64-1,1.32-1.61,2a8.93,8.93,0,0,0,1-.51,11,11,0,0,0,2.12-1.67c2.41-2.42,3.34-5.41,2.07-6.68s-4.26-.34-6.68,2.07a11.32,11.32,0,0,0-1.67,2.12,8.93,8.93,0,0,0-.51,1c.7-.59,1.38-1.13,2-1.61" fill="#fff"/></g></svg>