<svg xmlns="http://www.w3.org/2000/svg" viewBox="0 0 30 30">
    <path class="roadmap-background-circle" d="M30 15A15 15 0 1 1 15 0a15 15 0 0 1 15 15" fill="#999"/>
    <g transform="rotate(-90 15 15)">
        <circle class="circle-bg" stroke="#fff" fill="none" stroke-width="3" cx="15" cy="15" r="18"/>
        <circle class="roadmap-circle-progress" stroke="#fff" fill="none" stroke-width="3" stroke-dasharray="113.097" stroke-dashoffset="113.097" cx="15" cy="15" r="18"/>
    </g>
    <path fill="#fff" d="M5.94 6.34h3v3h-3zM11.6 7.46h10.5v.75H11.6zM5.94 11.11h3v3h-3zM11.6 12.24h13.5v.75H11.6zM5.94 15.89h3v3h-3zM11.6 17.01h12v.75h-12zM5.94 20.66h3v3h-3zM11.6 21.79h7.5v.75h-7.5z"/>
</svg>