<svg xmlns="http://www.w3.org/2000/svg" viewBox="0 0 30 30">
    <path class="roadmap-background-circle" d="M30 15A15 15 0 1 1 15 0a15 15 0 0 1 15 15" fill="#999"/>
    <g transform="rotate(-90 15 15)">
        <circle class="circle-bg" stroke="#fff" fill="none" stroke-width="3" cx="15" cy="15" r="18"/>
        <circle class="roadmap-circle-progress" stroke="#fff" fill="none" stroke-width="3" stroke-dasharray="113.097" stroke-dashoffset="113.097" cx="15" cy="15" r="18"/>
    </g>
    <path d="M14.32 9.57v11.09c-2.22-2.22-8.87 0-8.87 0V9.57s6.65-2.22 8.87 0m-7.9.78v.84s5.41-1.22 6.93 0v-.84c-1.49-1.45-6.93 0-6.93 0m6 1.29c-2.11-.54-6 .48-6 .48V13s3.81-.86 5.94-.41v-.92m.64 2.05c-1.85-1-6.57.26-6.57.26v.91s4.67-1.05 6.55-.22a3.36 3.36 0 0 0 0-.95m-6.56 2.12v.84s5.41-1.21 6.93 0v-.84c-1.49-1.45-6.93 0-6.93 0M11 17.05a20 20 0 0 0-4.6.65v.84A24.11 24.11 0 0 1 11 18a6 6 0 0 0 0-.95M24 17.85v2.81s-6.66-2.22-8.88 0v-6.54a6.65 6.65 0 0 0 .91 1v1.56c.85-.67 2.88-.6 4.52-.4v-.41a2.1 2.1 0 0 0 1.1-.44Zm-8-.15v.84c1.14-.91 4.47-.46 6.06-.17a5.13 5.13 0 0 0 0-.87c-1.59-.34-5-.9-6.12.2" fill="#fff"/>
    <path d="M22.83 7.43a4.25 4.25 0 1 0-.56 6.47l5.34 5.33 1-1-5.34-5.33a4.24 4.24 0 0 0-.45-5.46M22.35 13a3.59 3.59 0 1 1 0-5.07 3.59 3.59 0 0 1 0 5.07" fill="#fff"/>
</svg>