<svg xmlns="http://www.w3.org/2000/svg" viewBox="0 0 40 40">
    <g>
        <path d="m24.73,14.87c-.32-.97-2.31-1.79-5.12-2.23-.04-.61-.42-1.29-1.29-2.06-1.52-1.29-1.3-2.54.36-3.75-3.02.79-3.21,2.06-1.45,3.68.78.68,1.24,1.35,1.42,2-.91-.11-1.89-.18-2.91-.2.14-.88-.18-1.87-1.21-3.01-1.49-1.58-1.24-3.14.45-4.68-3.05,1.04-3.27,2.64-1.54,4.62.96,1.03,1.42,2.06,1.44,3.06-.97,0-1.91.04-2.79.12-.16-.48-.54-.99-1.18-1.56-1.52-1.29-1.3-2.54.36-3.75-3.02.78-3.22,2.06-1.45,3.68.67.59,1.11,1.16,1.32,1.73-3.54.43-6.03,1.44-6.03,2.63,0,.04,0,.07.01.11-.01,0-.01-.01-.01-.01.38,6.54,4.1,8.99,9.84,9.05,2.92-.03,5.35-.75,7.07-2.28h.01c11.24-3.75,5-9.9,2.7-7.15Zm-9.79,2.95c-5.1,0-9.23-1.2-9.23-2.67,0-1.09,2.26-2.03,5.5-2.44.3.92.02,1.82-.73,2.69,1.14-.82,1.96-1.7,1.67-2.8.87-.08,1.79-.12,2.74-.12-.02.84-.33,1.66-.9,2.48.85-.76,1.52-1.56,1.72-2.47,1.05.02,2.06.1,2.98.22.17.82-.12,1.62-.8,2.41.96-.69,1.68-1.41,1.72-2.27,2.73.46,4.56,1.32,4.56,2.3,0,1.47-4.13,2.67-9.23,2.67Zm12.05.4c-.86,1.25-2.47,1.68-3.53,2.05.69-1.15,1.13-2.57,1.27-4.27l.01-.01c1.29-1.53,4.07-.39,2.25,2.23Z" style="fill: #fff;"></path>
    </g>
</svg>