<svg xmlns="http://www.w3.org/2000/svg" viewBox="0 0 30 30"><g id="Layer_33" data-name="Layer 33"><path class="roadmap-background-circle" d="M30,15A15,15,0,1,1,15,0,15,15,0,0,1,30,15" fill="#999"/><polygon points="22.01 23.68 21.49 23.31 22.12 22.98 21.15 22.33 24.08 23.31 21.15 24.28 22.01 23.68" fill="#fff"/><path d="M18.1,24.58A4.74,4.74,0,0,1,19,25H10.62a2.67,2.67,0,0,0,.34-.43s7.05,0,7.14,0" fill="#fff"/><path d="M18.56,22.79c.59.25,1.17.5,1.13.77l-.93.39c-.14.05-7.49.05-7.48,0a1.91,1.91,0,0,0,0-1.16c0-.05,7.16-.05,7.28,0" fill="#fff"/><path d="M10.62,21.61H19c.13.13-.09.35-.42.54-.08,0-7.5,0-7.52,0a2.93,2.93,0,0,0-.4-.54" fill="#fff"/><path d="M9.57,25H9.19a2.36,2.36,0,0,0,0-3.41h.38a2.36,2.36,0,0,1,0,3.41" fill="#fff"/><path d="M8.15,25H6.45a2.36,2.36,0,0,1,0-3.41h1.7a2.37,2.37,0,0,1,0,3.41" fill="#fff"/><path d="M12.87,18.35h3.64s-.43-3.33.21-4.26,4.47.17,4.47-6c0-4.27-3.56-5.46-6.45-5.46-1.47,0-6.16.24-6.16,4.77H11.2s-.48-1.73,3.72-1.73,3.1,5.27,1.55,5.27-2.38.22-3,1.09c-1,1.23-.55,6.35-.55,6.35" fill="#fff"/></g></svg>