<svg xmlns="http://www.w3.org/2000/svg" viewBox="0 0 40 40">
    <path d="M15.04 3.925v1.128l.187-.016.188-.015.013-1.112.014-1.112h-.402v1.127m-4.347.597-.121.129.785.784.784.785.125-.126.125-.125-.789-.787-.789-.788-.12.128m8.13.664-.788.789.128.121.128.12.797-.795.796-.795-.107-.115a.463.463 0 0 0-.137-.114c-.016 0-.384.355-.817.789m-3.981.965c-.541.093-1.099.455-1.375.894a2.185 2.185 0 0 0-.296 1.025c-.006.35.125.659.638 1.515.587.978.688 1.22.724 1.728.038.528.027.519.682.519.656 0 .638.014.703-.567.063-.568.108-.673.793-1.82.237-.398.466-.844.509-.992.196-.672-.152-1.529-.793-1.958a2.228 2.228 0 0 0-1.585-.344M9.444 8.17v.174h2.248v-.349H9.444v.175m9.343 0v.174h2.249v-.349h-2.249v.175m-7.433 3.086c-.418.419-.761.786-.761.815 0 .03.051.102.114.161l.115.107.795-.796.795-.797-.119-.126a.542.542 0 0 0-.148-.127c-.016 0-.372.343-.791.763m6.834-.638-.121.129.785.784.784.784.125-.125.125-.125-.789-.788-.789-.787-.12.128m-3.97 1.791c-.152.152-.156.205-.036.429.089.166.089.173-.004.266-.119.118-.089.281.103.562.172.253.43.38.837.412.452.037.735-.053.947-.302.239-.279.307-.502.202-.662-.072-.111-.073-.137-.004-.27.1-.193.096-.319-.011-.414-.152-.133-.302-.147-.652-.062-.288.07-.386.073-.638.022-.585-.119-.606-.118-.744.019m.997.203c.247 0 .537-.01.644-.023.276-.032.278.056.009.343-.126.135-.228.259-.228.277 0 .018.101.032.224.032.124 0 .225.019.225.043 0 .023-.066.134-.148.247-.16.221-.367.309-.726.309s-.566-.088-.726-.309c-.082-.113-.149-.224-.149-.247 0-.024.115-.043.254-.043h.254l-.229-.261c-.126-.144-.229-.304-.229-.357 0-.083.023-.09.188-.053.103.023.39.041.637.042m-4.122 2.733c-.966.084-2.474.378-3.418.666l-.43.131v4.746c0 2.61.015 4.745.033 4.745.018 0 .316-.078.662-.173 1.616-.444 3.093-.652 4.352-.611 1.158.037 1.791.206 2.336.621.117.09.224.163.238.163.013 0 .024-2.134.024-4.743v-4.742l-.195-.155c-.718-.568-1.958-.792-3.602-.648m6.41 0c-.799.093-1.43.316-1.826.646l-.187.156v9.487l.287-.194c.626-.422 1.404-.606 2.561-.606 1.135-.001 2.463.197 3.897.579.371.099.725.192.787.206l.113.026v-9.502l-.338-.1c-1.94-.576-4.006-.848-5.294-.698m-4.498 1.041c.369.094.695.26.923.468.102.092.113.148.113.571v.468l-.173-.132c-.449-.342-1.409-.497-2.603-.418-.735.048-1.866.229-2.61.417-.277.071-.516.128-.532.128-.016 0-.028-.21-.028-.467v-.467l.662-.179c1.349-.366 2.046-.475 3.09-.481.619-.004.856.015 1.158.092m6.675-.019a15.55 15.55 0 0 1 1.987.431l.556.155.035.447c.02.245.025.457.012.47-.013.012-.254-.036-.536-.107-2.27-.576-4.466-.578-5.216-.006l-.166.127-.036-.45c-.026-.343-.019-.47.032-.531.14-.171.61-.424.955-.514.466-.122 1.623-.133 2.377-.022m-6.676 1.968.187.057v.999l-.262-.04c-.144-.021-.712-.036-1.262-.032-1.069.007-1.819.105-2.968.389a8.886 8.886 0 0 1-.564.129c-.024 0-.038-.208-.03-.462l.015-.463.549-.157a16.621 16.621 0 0 1 2.074-.444c.554-.08 1.974-.065 2.261.024m7.008.051c.329.058.684.129.787.156l.187.049v.473c0 .368-.015.473-.069.473-.037 0-.347-.05-.687-.11-.505-.09-.814-.11-1.692-.112-.974-.003-1.108.007-1.424.107a2.997 2.997 0 0 0-.589.263l-.239.152.014-.485.014-.485.211-.16c.239-.183.651-.35 1.031-.418.423-.076 1.783-.023 2.456.097m-.335 1.98c.502.067 1.414.256 1.861.385l.222.064.015.46c.012.391.002.46-.064.46-.043 0-.353-.055-.689-.123-1.412-.284-2.907-.367-3.678-.203-.367.078-.801.263-.967.413-.083.075-.088.053-.088-.398v-.478l.176-.154c.577-.507 1.601-.643 3.212-.426m-6.779-.008c.182.039.443.127.58.197l.248.125.032.31c.072.688.05.729-.324.598-.955-.336-2.659-.253-4.706.23-.297.07-.552.115-.567.1-.015-.015-.031-.236-.034-.492l-.007-.465.574-.164a17.249 17.249 0 0 1 2.125-.453c.561-.072 1.709-.064 2.079.014m.013 2.052c.404.085.729.234.962.438l.168.147v.944l-.173-.132a2.513 2.513 0 0 0-.537-.261c-.325-.116-.458-.132-1.221-.151a9.37 9.37 0 0 0-1.524.063c-.624.078-1.846.31-2.241.425a1.52 1.52 0 0 1-.214.051c-.022 0-.034-.208-.026-.461l.015-.462.461-.135a18.108 18.108 0 0 1 2.062-.459c.637-.097 1.827-.101 2.268-.007m6.701-.001c.275.04.516.074.537.074.021.001.038.23.038.509v.506l-.263-.032c-1.674-.209-2.851-.1-3.427.318l-.208.151v-.94l.168-.147c.227-.199.559-.354.939-.436.422-.092 1.591-.093 2.216-.003" fill="#fff"/>
</svg>