<svg xmlns="http://www.w3.org/2000/svg" viewBox="0 0 30 30"><title>icon-50</title><g id="Layer_7" data-name="Layer 7"><path class="roadmap-background-circle" d="M30,15A15,15,0,1,1,15,0,15,15,0,0,1,30,15" fill="#427e93"/><path d="M15,8l-2.63,2V6.25H9.75L15,2.75l5.25,3.5H17.62V10Zm1.76-2.36A1.76,1.76,0,1,0,15,7.38a1.76,1.76,0,0,0,1.76-1.75" fill="#fff"/><path d="M7.12,25.5V17.63H4.5L15,9.75l10.5,7.88H22.87V25.5H17.62V18.75H12.37V25.5Zm9.82-11.23a2.09,2.09,0,1,0-2.09,2.09,2.08,2.08,0,0,0,2.09-2.09m4.93,3.94H18.62v4.42h3.25Zm-10.5,0H8.12v4.42h3.25Z" fill="#fff"/></g></svg>