<svg xmlns="http://www.w3.org/2000/svg" viewBox="0 0 40 40">
    <path fill="#fff" d="M15.28 18.92h1.78l2.19 1.78 2.19-1.78h1.77l-2.87 2.88 2.87 2.87h-1.77l-2.19-1.78-2.19 1.78h-1.78l2.88-2.87-2.88-2.88zM15.28 9.84h1.63l.84 2.93 4-7.44h2.2l-6.26 8.86-2.41-4.35zM8.27 23.6l.46-.63.4.76.77-1.17-1.17 3.53-1.18-3.53.72 1.04zM7.18 18.88a6.48 6.48 0 0 1-.51 1V9.85a4.71 4.71 0 0 0 .51.42c.05.05.05 8.5 0 8.61M9.35 19.43c-.3.72-.6 1.41-.92 1.37-.19-.41-.34-.74-.48-1.13-.06-.16-.06-9 0-9a2.3 2.3 0 0 0 1.4 0c.06 0 .06 8.64 0 8.78M10.78 9.85v10.07c-.16.16-.43-.11-.66-.51v-9.07a3.56 3.56 0 0 0 .66-.49M6.67 8.59v-.46a2.84 2.84 0 0 0 4.11 0v.46a2.84 2.84 0 0 1-4.11 0M6.67 6.88V4.82a2.85 2.85 0 0 1 4.11 0v2.06a2.85 2.85 0 0 1-4.11 0"/>
</svg>