<svg xmlns="http://www.w3.org/2000/svg" viewBox="0 0 30 30"><g id="Layer_19" data-name="Layer 19"><path class="roadmap-background-circle" d="M30,15A15,15,0,1,1,15,0,15,15,0,0,1,30,15" fill="#999"/>    <g transform-origin="15px 15px" transform="rotate(-90)">
    <!-- normal background circle -->
    <circle class="circle-bg" stroke="#fff" fill="none" stroke-width="3" cx="15" cy="15" r="18"></circle>
    <!-- progress circle, dashoffset initialized to be hidden before JS changes it; color must change along with background circle -->
    <circle class="roadmap-circle-progress" stroke="#fff" fill="none" stroke-width="3" stroke-dasharray="113.0973355292" stroke-dashoffset="113.0973355292" cx="15" cy="15" r="18"></circle>
</g><path d="M15.06,29c-1.62,0-2-.51-2-.51s-2-2,0-2c-2-2,0-2,0-2a5.52,5.52,0,0,0,3.92,0s2,0,0,2c2,0,0,2,0,2s-.33.51-2,.51" fill="#fff"/><path d="M21,13.38a5.72,5.72,0,0,0-5.89-5.89,5.72,5.72,0,0,0-5.88,5.89c0,1.81,3.2,5.6,3.8,7.8a10.45,10.45,0,0,1,.12,2.45,5.82,5.82,0,0,0,2,.3,5.75,5.75,0,0,0,2-.3,11.06,11.06,0,0,1,.12-2.45c.6-2.2,3.81-6,3.81-7.8m-4.26,7.39a11.56,11.56,0,0,0-.11,2.39,3.19,3.19,0,0,1-1.52.27,3.19,3.19,0,0,1-1.52-.27,11.34,11.34,0,0,0-.1-2.39c-.54-1.95-3.59-5.95-3.59-7.56A5.05,5.05,0,0,1,15.06,8a5.06,5.06,0,0,1,5.22,5.21c0,1.61-3.06,5.61-3.59,7.56" fill="#fff"/><rect x="14.65" y="0.98" width="0.83" height="5.01" fill="#fff"/><rect x="22.99" y="12.6" width="5.01" height="0.82" fill="#fff"/><rect x="23.02" y="17.73" width="0.83" height="5.01" transform="translate(-7.44 22.54) rotate(-45.07)" fill="#fff"/><rect x="20.93" y="6.14" width="5.01" height="0.83" transform="translate(2.23 18.49) rotate(-45)" fill="#fff"/><rect x="2.12" y="12.62" width="5.01" height="0.82" fill="#fff"/><rect x="4.18" y="19.85" width="5.01" height="0.83" transform="translate(-12.37 10.66) rotate(-45)" fill="#fff"/><rect x="6.28" y="4.08" width="0.83" height="5.01" transform="translate(-2.7 6.66) rotate(-45)" fill="#fff"/></g></svg>