<svg xmlns="http://www.w3.org/2000/svg" viewBox="0 0 30 30">
    <path class="roadmap-background-circle" d="M30 15A15 15 0 1 1 15 0a15 15 0 0 1 15 15" fill="#999"/>
    <g transform="rotate(-90 15 15)">
        <circle class="circle-bg" stroke="#fff" fill="none" stroke-width="3" cx="15" cy="15" r="18"/>
        <circle class="roadmap-circle-progress" stroke="#fff" fill="none" stroke-width="3" stroke-dasharray="113.097" stroke-dashoffset="113.097" cx="15" cy="15" r="18"/>
    </g>
    <path d="M22.63 11.39V7.18a.79.79 0 0 0-.79-.78H5.59a.79.79 0 0 0-.79.78v10.58a.79.79 0 0 0 .79.78h1.58s.6-.44-.3 2.64a12.64 12.64 0 0 0 2.44-2.64v-1.72H6.37v-1.93h3v-1.57h-3v-1.93h16.26Zm-1.57-1.45H6.37V8h14.69Z" fill="#fff"/>
    <path d="M24.6 13.72H12.12a.6.6 0 0 0-.6.6v8.12a.6.6 0 0 0 .6.6h1.21s.46-.34-.23 2A9.24 9.24 0 0 0 15 23h9.6a.6.6 0 0 0 .6-.6v-8.08a.6.6 0 0 0-.6-.6m-.6 2.72H12.72V15H24ZM24 19H12.72v-1.44H24Zm0 2.68H12.72v-1.44H24Z" fill="#fff"/>
</svg>