<svg xmlns="http://www.w3.org/2000/svg" viewBox="0 0 30 30">
    <path class="roadmap-background-circle" d="M30 14.92a15 15 0 1 1-15-15 15 15 0 0 1 15 15" fill="#999"/>
    <g transform="rotate(-90 15 15)">
        <circle class="circle-bg" stroke="#fff" fill="none" stroke-width="3" cx="15" cy="15" r="18"/>
        <circle class="roadmap-circle-progress" stroke="#fff" fill="none" stroke-width="3" stroke-dasharray="113.097" stroke-dashoffset="113.097" cx="15" cy="15" r="18"/>
    </g>
    <path d="M11.71 3.48h-.09c-.28.15-4.4.4-5.08 1.68V22.56l12 3.69v-.66l4.71-1.43.48.2.15-17.21ZM7.86 5.76c.83-1 4.36-1.3 4.64-1.43l10.12 3.09L18 8.87Zm15.42 17.78L18.57 25V9.43L23.28 8Z" fill="#fff"/>
</svg>