<svg xmlns="http://www.w3.org/2000/svg" viewBox="0 0 40 40">
    <path d="M 7.755 9.165 S 6.42 7.5 7.71 6.285 s 3.69 0.39 3.69 0.39 s 0 -2.28 1.89 -2.4 A 2.79 2.79 90 0 1 15.9 6.24 s 1.2 -2.205 3.18 -1.665 a 2.355 2.355 90 0 1 1.65 2.67 s 2.445 -0.78 3.39 0.525 s -0.81 2.88 -0.81 2.88 S 25.5 10.5 25.5 12.165 s -2.28 1.155 -2.28 1.155 s 1.755 1.83 0 2.835 a 2.265 2.265 90 0 1 -3 -0.765 s 0.66 2.07 -1.275 2.43 a 2.445 2.445 90 0 1 -2.64 -1.62 s -0.39 2.205 -1.68 1.98 S 12.69 16.35 12.69 16.35 s -1.275 1.845 -2.79 1.11 c -1.275 -0.615 -0.315 -2.79 -0.315 -2.79 s -2.4 0.885 -2.865 -0.3 S 7.5 12 7.5 12 s -1.71 0.18 -1.89 -1.305 S 7.755 9.165 7.755 9.165 Z" fill="#fff" />
    <ellipse cx="11.71" cy="20.4" rx="1.70" ry="1.08" fill="#fff" />
    <ellipse cx="7.76" cy="22.32" rx="1.50" ry="0.99" fill="#fff" />
</svg>