<svg xmlns="http://www.w3.org/2000/svg" viewBox="0 0 30 30"><title>icon-23</title><g id="Layer_12" data-name="Layer 12"><path class="roadmap-background-circle" d="M30,14.83A15,15,0,1,1,14.83,0,15,15,0,0,1,30,14.83" fill="#999"/><path d="M11.58,17l-4.8-.79a1.93,1.93,0,0,0-2.37,2l0,4.79a2.88,2.88,0,0,0,2.43,2.78l4.8.8a1.94,1.94,0,0,0,2.37-2L14,19.75A2.88,2.88,0,0,0,11.58,17m.85,4.29-7.2-1.18,0-2.4,7.2,1.19Z" fill="#fff"/><path d="M18.34,8.33A10.11,10.11,0,0,0,13.46,6.6C11.2,6.36,6.85,7.85,6.87,9.44l.06,5.1s6.43.88,7,.94,1.79,1,1.82,3.43l.09,7.77,3.72-2.3L19.41,10.7s-.19-1.76-1.07-2.37m0,15.41c-.14,1.09-1.34.8-1.34.8S17.74,12,15.08,10.1,7.6,8.85,7.6,8.85a9.7,9.7,0,0,1,1.65-1c.37,0,5-.35,7.23,1.29s2,13.49,1.88,14.59" fill="#fff"/><path d="M12.26,5.73s1-1.48,1.83-1.27.71,1.37.71,1.37a6.82,6.82,0,0,1,1.29.3c.15.12,0-2.42-1.95-2.53s-2.67,2.12-2.6,2.27.14,0,.72-.14" fill="#fff"/><path d="M19.15,7.3A3.45,3.45,0,0,1,20.53,9c0,.13,2.16-2.6,2.89-1.54s.7,12.33-.37,12.85-2.14-.55-2.14-.55l0,1.89a5.8,5.8,0,0,0,2.39-.12c1.3-.83,2-14.29.29-15.34S20,6.73,19.15,7.3" fill="#fff"/></g></svg>