<svg xmlns="http://www.w3.org/2000/svg" viewBox="0 0 30 30"><g id="Layer_11" data-name="Layer 11"><path class="roadmap-background-circle" d="M30,14.92a15,15,0,1,1-15-15,15,15,0,0,1,15,15" fill="#999"/>    <g transform-origin="15px 15px" transform="rotate(-90)">
    <!-- normal background circle -->
    <circle class="circle-bg" stroke="#fff" fill="none" stroke-width="3" cx="15" cy="15" r="18"></circle>
    <!-- progress circle, dashoffset initialized to be hidden before JS changes it; color must change along with background circle -->
    <circle class="roadmap-circle-progress" stroke="#fff" fill="none" stroke-width="3" stroke-dasharray="113.0973355292" stroke-dashoffset="113.0973355292" cx="15" cy="15" r="18"></circle>
</g><path d="M11.71,3.48h-.09c-.28.15-4.4.4-5.08,1.68,0,.06,0,.21,0,.21V22.56l12,3.69v-.66l4.71-1.43.48.2.15-17.21ZM7.86,5.76c.83-1,4.36-1.3,4.64-1.43L22.62,7.42,18,8.87ZM23.28,23.54,18.57,25V9.43L23.28,8Z" fill="#fff"/></g></svg>