<svg xmlns="http://www.w3.org/2000/svg" viewBox="0 0 30 30"><g id="Layer_3" data-name="Layer 3"><path class="roadmap-background-circle" d="M30,15A15,15,0,1,1,15,0,15,15,0,0,1,30,15" fill="#999"/><path d="M3.83,19.12,2.29,12.67H3.62l1,4.43,1.18-4.43H7.32l1.12,4.5,1-4.5h1.31L9.18,19.12H7.8L6.52,14.3,5.24,19.12Z" fill="#fff"/><path d="M12.32,19.12l-1.54-6.45h1.33l1,4.43,1.17-4.43h1.55l1.13,4.5,1-4.5h1.31l-1.57,6.45H16.29L15,14.3l-1.28,4.82Z" fill="#fff"/><path d="M20.82,19.12l-1.54-6.45h1.33l1,4.43,1.18-4.43H24.3l1.13,4.5,1-4.5h1.31l-1.56,6.45H24.79L23.5,14.3l-1.27,4.82Z" fill="#fff"/></g></svg>