<svg xmlns="http://www.w3.org/2000/svg" viewBox="0 0 30 30">
    <path class="roadmap-background-circle" d="M30 15A15 15 0 1 1 15 0a15 15 0 0 1 15 15" fill="#999"/>
    <g transform="rotate(-90 15 15)">
        <circle class="circle-bg" stroke="#fff" fill="none" stroke-width="3" cx="15" cy="15" r="18"/>
        <circle class="roadmap-circle-progress" stroke="#fff" fill="none" stroke-width="3" stroke-dasharray="113.097" stroke-dashoffset="113.097" cx="15" cy="15" r="18"/>
    </g>
    <path d="M6.047 7.125c-1.115.3-1.824 1.501-1.532 2.594a2.203 2.203 0 0 0 1.801 1.637c.857.147 1.821-.357 2.229-1.164.845-1.673-.687-3.553-2.498-3.067M22.87 7.1c-1.066.251-1.82 1.363-1.644 2.425a2.23 2.23 0 0 0 1.789 1.823c.783.146 1.685-.241 2.143-.917a2.216 2.216 0 0 0 .06-2.349c-.157-.268-.553-.644-.826-.782-.446-.228-1.06-.309-1.522-.2m-8.38 3.224c-1.12.217-2.044 1.114-2.276 2.213-.203.954.069 1.853.773 2.559.587.588 1.192.843 2.003.843.811 0 1.416-.255 2.003-.843.434-.435.654-.836.778-1.418.285-1.338-.504-2.739-1.813-3.219-.261-.096-.463-.13-.843-.142a5.036 5.036 0 0 0-.625.007m-9.871 2.197c-.293.1-.563.372-.904.91-.746 1.178-1.358 3.459-1.171 4.363.077.37.228.519.484.478.398-.065.576-.401.923-1.748.136-.526.316-1.103.4-1.283.144-.308.366-.601.455-.601.022 0 .041.821.041 1.824v1.824h3.546l.013-1.836.013-1.837.286.295c.296.305.664.818.818 1.142.083.175.171.247.171.14 0-.026.131-.222.292-.437.365-.487.438-.689.36-1-.085-.337-.213-.56-.66-1.154-.712-.944-.926-1.12-1.353-1.117-.197.002-.317.043-.581.198-.465.274-.668.332-1.156.327-.472-.005-.732-.081-1.116-.328-.294-.188-.608-.247-.861-.16m16.835-.027c-.272.057-.512.267-.939.822-.641.833-.886 1.288-.886 1.645 0 .255.068.399.376.794.125.159.24.334.257.387.017.053.047.097.065.096.019-.001.122-.158.23-.349.225-.401.666-.971.881-1.14l.148-.116V18.288H25.133v-1.824c0-1.042.019-1.824.045-1.824.087 0 .371.373.492.647.068.153.234.704.368 1.225.135.522.311 1.089.392 1.261.301.645.832.693.997.09.21-.77-.243-2.708-.953-4.075-.606-1.168-1.181-1.535-1.835-1.172-.922.513-1.479.546-2.254.136-.464-.245-.691-.308-.931-.258m-9.262 4.971c-.307.179-.418.287-.749.729-.683.914-1.345 2.559-1.683 4.184-.181.873-.195 1.864-.031 2.22.262.568.886.438 1.234-.258.16-.32.292-.744.529-1.705.346-1.401.535-1.872.915-2.284l.21-.228.025 2.418.025 2.417h4.646l.025-2.417.025-2.418.21.228c.387.42.594.948.967 2.467.26 1.062.443 1.54.702 1.834.439.499.952.372 1.09-.269.219-1.022-.272-3.259-1.093-4.977-.365-.766-.683-1.259-1.043-1.616-.382-.379-.581-.467-1.004-.443-.288.016-.384.049-.689.233-.628.379-.805.43-1.513.43-.708 0-.885-.05-1.514-.431-.316-.191-.395-.216-.707-.23-.305-.013-.382.003-.577.116" fill="#fff"/>
</svg>