<svg xmlns="http://www.w3.org/2000/svg" viewBox="0 0 30 30"><title>icon-8</title><g id="Layer_37" data-name="Layer 37"><path class="roadmap-background-circle" d="M30,15A15,15,0,1,1,15,0,15,15,0,0,1,30,15" fill="#999"/><path d="M17.86,25.11a3.1,3.1,0,1,1-3.1-3.1,3.1,3.1,0,0,1,3.1,3.1" fill="#fff"/><path d="M15.41,19.51c2.18-.72,1.11-2.86,4.66-5.28C25.26,10.7,23.66,4,16,4S6.71,8.42,6.71,10.29s1.78,5.23,5,1.53c1.19-1.4-.51-3.29.42-4.74s4-1.23,4.47.93S14.69,11.9,14,14.12s-1.7,6.44,1.44,5.39" fill="#fff"/></g></svg>