<svg xmlns="http://www.w3.org/2000/svg" viewBox="0 0 30 30"><g id="Layer_23" data-name="Layer 23"><path class="roadmap-background-circle" d="M30,15A15,15,0,1,1,15,0,15,15,0,0,1,30,15" fill="#999"/>    <g transform-origin="15px 15px" transform="rotate(-90)">
    <!-- normal background circle -->
    <circle class="circle-bg" stroke="#c0c0c0" fill="none" stroke-width="3" cx="15" cy="15" r="18"></circle>
    <!-- progress circle, dashoffset initialized to be hidden before JS changes it; color must change along with background circle -->
    <circle class="roadmap-circle-progress" stroke="#4156A1" fill="none" stroke-width="3" stroke-dasharray="113.0973355292" stroke-dashoffset="113.0973355292" cx="15" cy="15" r="18"></circle>
</g><polygon points="17.06 21.04 17.06 23.86 6.65 23.86 6.65 8.95 18.01 8.95 18.01 7.98 5.7 7.98 5.7 24.9 18.01 24.9 18.01 19.54 17.06 21.04" fill="#fff"/><rect x="7.99" y="10.98" width="1.91" height="0.77" fill="#fff"/><rect x="7.99" y="14.92" width="2.37" height="0.77" fill="#fff"/><rect x="7.99" y="18.86" width="3.82" height="0.77" fill="#fff"/><polygon points="11.73 12.96 14.36 12.96 15.7 17.68 22.15 5.69 25.7 5.69 15.61 19.97 11.73 12.96" fill="#fff"/></g></svg>