<svg xmlns="http://www.w3.org/2000/svg" viewBox="0 0 40 40">
  <g>
    <rect x="17.03" y="14.85" width=".3" height="4.62" transform="translate(13 -6.76) rotate(35.14)" style="fill: #fff;"/>
    <rect x="18.33" y="14.4" width=".3" height="6.72" transform="translate(13.59 -7.4) rotate(35.14)" style="fill: #fff;"/>
    <path d="m21.95,12.2h-13.89c-.96,0-1.75.78-1.75,1.75v8.46c0,.96.78,1.75,1.75,1.75h13.89c.96,0,1.75-.78,1.75-1.75v-8.46c0-.96-.78-1.75-1.75-1.75Zm-6.95,11.34c-.34,0-.61-.27-.61-.61s.27-.61.61-.61.61.27.61.61-.27.61-.61.61Zm6.85-1.86H7.98v-8.08h13.87v8.08Z" style="fill: #fff;"/>
    <path d="m19.15,26.25v-.03c0-.23-.57-.42-1.28-.42h-.02v-.64h-5.68v.64h-.04c-.71,0-1.28.19-1.28.42v.12s0,0,0,0v.45h8.3v-.54h0Z" style="fill: #fff;"/>
  </g>
  <g>
    <path d="m27.98,17.35v-.41h0v-.02c0-.18-.44-.32-.97-.32h-.02v-.49h-2.32v1.24h3.31Z" style="fill: #fff;"/>
    <path d="m29.86,12.95c-1.78,0-3.57,0-5.35,0,.07.23.12.46.14.71.07-.05.16-.08.25-.08.25,0,.46.21.46.46s-.21.46-.46.46c-.09,0-.16-.03-.23-.07v.79h4.78c.09,0,.18,0,.28-.01.1,0,.19-.02.28-.04,0-.04,0-.09,0-.16,0-.35-.01-.61-.03-.85-.01-.18-.03-.44-.06-.76-.02-.17-.04-.32-.05-.44Z" style="fill: #fff;"/>
    <path d="m17.53,7.44v3.54h1.76v-5.06c2.55,0,5.1,0,7.65,0-.17-.22-.35-.45-.55-.69-.2-.23-.4-.45-.59-.65-1.8,0-3.61,0-5.41,0-1.58,0-2.86,1.28-2.86,2.86Z" style="fill: #fff;"/>
    <rect x="26.52" y="6.97" width=".22" height="3.73" transform="translate(9.94 -13.72) rotate(35.14)" style="fill: #fff;"/>
  </g>
  <g>
    <rect x="6.39" y="7.09" width=".23" height="3.61" transform="translate(6.31 -2.12) rotate(35.14)" style="fill: #fff;"/>
    <rect x="7.41" y="6.74" width=".23" height="5.26" transform="translate(6.77 -2.63) rotate(35.14)" style="fill: #fff;"/>
    <path d="m10.44,5.93v5.05h2.02v-3.53c0-1.58-1.28-2.86-2.86-2.86h-5.42c-.19.2-.39.41-.59.65-.2.23-.39.46-.56.69h7.39Z" style="fill: #fff;"/>
    <path d="m5.3,15.22v-.8c-.07.04-.15.07-.23.07-.25,0-.46-.21-.46-.46s.21-.46.46-.46c.1,0,.18.04.25.09.01-.25.06-.48.14-.71-1.77,0-3.54,0-5.31,0-.01.09-.03.21-.04.35-.02.16-.04.39-.06.66,0,.09-.02.23-.02.42,0,.22-.01.4-.01.52,0,.11,0,.2,0,.26.08.02.18.03.28.04.1.01.2.01.28.01h4.74Z" style="fill: #fff;"/>
    <path d="m2.83,16.12v.49h-.03c-.54,0-.97.14-.97.32v.09s0,0,0,0v.34h3.48v-1.24h-2.48Z" style="fill: #fff;"/>
  </g>
</svg>