<svg xmlns="http://www.w3.org/2000/svg" viewBox="0 0 30 30"><g id="Layer_21" data-name="Layer 21"><path class="roadmap-background-circle" d="M30,15A15,15,0,1,1,15,0,15,15,0,0,1,30,15" fill="#999"/>    <g transform-origin="15px 15px" transform="rotate(-90)">
    <!-- normal background circle -->
    <circle class="circle-bg" stroke="#c0c0c0" fill="none" stroke-width="3" cx="15" cy="15" r="18"></circle>
    <!-- progress circle, dashoffset initialized to be hidden before JS changes it; color must change along with background circle -->
    <circle class="roadmap-circle-progress" stroke="#4156A1" fill="none" stroke-width="3" stroke-dasharray="113.0973355292" stroke-dashoffset="113.0973355292" cx="15" cy="15" r="18"></circle>
</g><rect x="12.3" y="18.67" width="7.21" height="0.89" fill="#fff"/><polygon points="22.82 23.79 23.94 23.79 23.94 22.11 22.82 23.79" fill="#fff"/><path d="M12.3,16.66v.05h4.51v-.89H14.2a6,6,0,0,1-1.9.84" fill="#fff"/><path d="M16.46,13a5.71,5.71,0,0,1-.45.89h5.24V13Z" fill="#fff"/><path d="M16.84,10.12c0,.2.06.4.06.6a2.85,2.85,0,0,1,0,.29h2.65v-.89Z" fill="#fff"/><path d="M16.32,8.16h.49V7.27h-1a5.42,5.42,0,0,1,.48.89" fill="#fff"/><path d="M10.73,22.58V16.89a6.72,6.72,0,0,1-1.1-.11v7h5.63l-.64-1.21Z" fill="#fff"/><path d="M9.63,4.11v.56a5.78,5.78,0,0,1,1.1-.11,6.16,6.16,0,0,1,2.77.68h9.34v9.5l.51-.89.59,0V4.11Z" fill="#fff"/><polygon points="15.42 21.27 17.61 21.27 18.83 24.11 24.12 15.2 27.08 15.2 18.66 27.77 15.42 21.27" fill="#fff"/><path d="M13.7,13.71a4.22,4.22,0,1,0-6.43-.55L2,18.46l1,1,5.3-5.3a4.21,4.21,0,0,0,5.42-.45m-5.51-.47a3.56,3.56,0,1,1,5,0,3.55,3.55,0,0,1-5,0" fill="#fff"/></g></svg>