<svg xmlns="http://www.w3.org/2000/svg" viewBox="0 0 40 40">
    <path d="M15.06 29c-1.62 0-2-.51-2-.51s-2-2 0-2c-2-2 0-2 0-2a5.52 5.52 0 0 0 3.92 0s2 0 0 2c2 0 0 2 0 2s-.33.51-2 .51M21 13.38a5.72 5.72 0 0 0-5.89-5.89 5.72 5.72 0 0 0-5.88 5.89c0 1.81 3.2 5.6 3.8 7.8a10.45 10.45 0 0 1 .12 2.45 5.82 5.82 0 0 0 2 .3 5.75 5.75 0 0 0 2-.3 11.06 11.06 0 0 1 .12-2.45c.6-2.2 3.81-6 3.81-7.8m-4.26 7.39a11.56 11.56 0 0 0-.11 2.39 3.19 3.19 0 0 1-1.52.27 3.19 3.19 0 0 1-1.52-.27 11.34 11.34 0 0 0-.1-2.39c-.54-1.95-3.59-5.95-3.59-7.56A5.05 5.05 0 0 1 15.06 8a5.06 5.06 0 0 1 5.22 5.21c0 1.61-3.06 5.61-3.59 7.56M14.65.98h.83v5.01h-.83zM22.99 12.6H28v.82h-5.01zM21.37 18.764l.586-.587 3.547 3.538-.586.587zM21.371 8.032l3.543-3.543.587.587-3.543 3.543zM2.12 12.62h5.01v.82H2.12zM4.622 21.74l3.542-3.542.587.587-3.542 3.542zM4.626 5.104l.587-.587L8.755 8.06l-.587.587z" fill="#fff"/>
</svg>