<svg xmlns="http://www.w3.org/2000/svg" viewBox="0 0 30 30"><title>icon-30</title><g id="Layer_20" data-name="Layer 20"><path class="roadmap-background-circle" d="M30,15A15,15,0,1,1,15,0,15,15,0,0,1,30,15" fill="#427e93"/><path d="M14.32,9.57V20.66c-2.22-2.22-8.87,0-8.87,0V9.57s6.65-2.22,8.87,0m-7.9.78v.84s5.41-1.22,6.93,0v-.84c-1.49-1.45-6.93,0-6.93,0m6,1.29c-2.11-.54-6,.48-6,.48V13s3.81-.86,5.94-.41c0-.2,0-.63,0-.92M13,13.72c-1.85-1-6.57.26-6.57.26l0,.91s4.67-1.05,6.55-.22a3.36,3.36,0,0,0,0-.95M6.42,15.84v.84s5.41-1.21,6.93,0v-.84c-1.49-1.45-6.93,0-6.93,0M11,17.05a20,20,0,0,0-4.6.65v.84A24.11,24.11,0,0,1,11,18a6,6,0,0,0,0-.95" fill="#fff"/><path d="M24,17.85l0,2.81s-6.66-2.22-8.88,0V14.12a6.65,6.65,0,0,0,.91,1c0,.47,0,1.56,0,1.56.85-.67,2.88-.6,4.52-.4,0-.21,0-.16,0-.41a2.1,2.1,0,0,0,1.1-.44Zm-8-.15c0,.11,0,.84,0,.84,1.14-.91,4.47-.46,6.06-.17a5.13,5.13,0,0,0,0-.87c-1.59-.34-5-.9-6.12.2" fill="#fff"/><path d="M22.83,7.43a4.25,4.25,0,1,0-.56,6.47l5.34,5.33,1-1-5.34-5.33a4.24,4.24,0,0,0-.45-5.46M22.35,13a3.59,3.59,0,1,1,0-5.07,3.59,3.59,0,0,1,0,5.07" fill="#fff"/></g></svg>