<svg xmlns="http://www.w3.org/2000/svg" viewBox="0 0 30 30"><title>icon-7</title><g id="Layer_36" data-name="Layer 36"><path class="roadmap-background-circle" d="M30,15A15,15,0,1,1,15,0,15,15,0,0,1,30,15" fill="#d14905"/><path d="M15,3.64c-6.12,0-11.08,3.84-11.08,8.58a7.3,7.3,0,0,0,1.94,4.86c.31.34-.16,2.5-1.94,4.61,2.31-.8,3.84-3,4.33-2.66A13.27,13.27,0,0,0,15,20.8c6.12,0,11.08-3.84,11.08-8.58S21.12,3.64,15,3.64m0,16a11.44,11.44,0,0,1-5.83-1.53c-.43-.25-.48-1-3,1.21,1.53-1.83,1.19-2.6.93-2.89a6.31,6.31,0,0,1-1.68-4.2c0-4.1,4.29-7.42,9.58-7.42s9.58,3.32,9.58,7.42S20.29,19.68,15,19.68" fill="#fff"/><path d="M7,15.43c0,4,4.16,7.18,9.28,7.18a11.31,11.31,0,0,0,5.05-1.15c.2-.11,2.29,1.22,4.23,1.9a5.72,5.72,0,0,1-1.26-4.31,6,6,0,0,0,1.26-3.62c0-4-4.16-7.19-9.28-7.19S7,11.46,7,15.43m12.53.09a1.63,1.63,0,1,1,1.63,1.63,1.63,1.63,0,0,1-1.63-1.63m-4.88,0a1.63,1.63,0,1,1,1.63,1.63,1.63,1.63,0,0,1-1.63-1.63m-4.87,0a1.63,1.63,0,1,1,1.62,1.63A1.62,1.62,0,0,1,9.8,15.52" fill="#fff"/></g></svg>