<svg xmlns="http://www.w3.org/2000/svg" viewBox="0 0 40 40">
    <path d="m19.69 2.21-8.1 8.1 8.1 8.1 8.1-8.1Zm0 15.65-7.55-7.55 7.55-7.55 7.55 7.55ZM10.31 11.59l-8.1 8.1 8.1 8.1 8.1-8.1Zm0 15.65-7.55-7.55 7.55-7.55 7.55 7.55Z" fill="#fff"/>
    <path d="M20.72 7.06a1.16 1.16 0 1 1 0-1.64 1.16 1.16 0 0 1 0 1.64M11.13 20.51a1.16 1.16 0 1 1 0-1.64 1.16 1.16 0 0 1 0 1.64M16.43 11.35a1.16 1.16 0 1 1-1.64-1.64 1.16 1.16 0 0 1 1.64 1.64M24.71 11.05a1.16 1.16 0 1 1 0-1.64 1.15 1.15 0 0 1 0 1.64M20.51 11.13a1.16 1.16 0 1 1 0-1.64 1.16 1.16 0 0 1 0 1.64M20.43 15.34a1.16 1.16 0 0 1-1.64 0 1.15 1.15 0 0 1 0-1.64 1.16 1.16 0 0 1 1.64 1.64" fill="#fff"/>
</svg>