<svg xmlns="http://www.w3.org/2000/svg" viewBox="0 0 30 30"><g id="Layer_32" data-name="Layer 32"><path class="roadmap-background-circle" d="M30,15A15,15,0,1,1,15,0,15,15,0,0,1,30,15" fill="#999"/>    <g transform-origin="15px 15px" transform="rotate(-90)">
    <!-- normal background circle -->
    <circle class="circle-bg" stroke="#fff" fill="none" stroke-width="3" cx="15" cy="15" r="18"></circle>
    <!-- progress circle, dashoffset initialized to be hidden before JS changes it; color must change along with background circle -->
    <circle class="roadmap-circle-progress" stroke="#fff" fill="none" stroke-width="3" stroke-dasharray="113.0973355292" stroke-dashoffset="113.0973355292" cx="15" cy="15" r="18"></circle>
</g><polygon points="15.28 18.92 17.06 18.92 19.25 20.7 21.44 18.92 23.21 18.92 20.34 21.8 23.21 24.67 21.44 24.67 19.25 22.89 17.06 24.67 15.28 24.67 18.16 21.8 15.28 18.92" fill="#fff"/><polygon points="15.28 9.84 16.91 9.84 17.75 12.77 21.75 5.33 23.95 5.33 17.69 14.19 15.28 9.84" fill="#fff"/><polygon points="8.27 23.6 8.73 22.97 9.13 23.73 9.9 22.56 8.73 26.09 7.55 22.56 8.27 23.6" fill="#fff"/><path d="M7.18,18.88a6.48,6.48,0,0,1-.51,1V9.85a4.71,4.71,0,0,0,.51.42c.05.05.05,8.5,0,8.61" fill="#fff"/><path d="M9.35,19.43c-.3.72-.6,1.41-.92,1.37-.19-.41-.34-.74-.48-1.13-.06-.16-.06-9,0-9a2.3,2.3,0,0,0,1.4,0c.06,0,.06,8.64,0,8.78" fill="#fff"/><path d="M10.78,9.85V19.92c-.16.16-.43-.11-.66-.51,0-.1,0-9,0-9.07a3.56,3.56,0,0,0,.66-.49" fill="#fff"/><path d="M6.67,8.59V8.13a2.84,2.84,0,0,0,4.11,0v.46a2.84,2.84,0,0,1-4.11,0" fill="#fff"/><path d="M6.67,6.88V4.82a2.85,2.85,0,0,1,4.11,0V6.88a2.85,2.85,0,0,1-4.11,0" fill="#fff"/></g></svg>