<svg xmlns="http://www.w3.org/2000/svg" viewBox="0 0 30 30">
    <path class="roadmap-background-circle" d="M30 15A15 15 0 1 1 15 0a15 15 0 0 1 15 15" fill="#999"/>
    <g transform="rotate(-90 15 15)">
        <circle class="circle-bg" stroke="#fff" fill="none" stroke-width="3" cx="15" cy="15" r="18"/>
        <circle class="roadmap-circle-progress" stroke="#fff" fill="none" stroke-width="3" stroke-dasharray="113.097" stroke-dashoffset="113.097" cx="15" cy="15" r="18"/>
    </g>
    <path d="M13.94 15A1.08 1.08 0 1 1 15 16.08 1.08 1.08 0 0 1 13.94 15M14.62 13.22a1.59 1.59 0 0 1 2 .9l3-9.12ZM14.62 2h.75v6h-.75zM20.107 9.864l4.242-4.243.53.53-4.242 4.243zM22.49 14.62h6v.75h-6zM5.163 6.149l.53-.53L9.936 9.86l-.53.53zM1.56 14.62h6v.75h-6z" fill="#fff"/>
</svg>