<svg xmlns="http://www.w3.org/2000/svg" viewBox="0 0 30 30">
  <path class="roadmap-background-circle" d="M30 15A15 15 0 1 1 15 0a15 15 0 0 1 15 15" fill="#999"/>
  <g transform="rotate(-90 15 15)">
    <circle class="circle-bg" stroke="#fff" fill="none" stroke-width="3" cx="15" cy="15" r="18"/>
    <circle class="roadmap-circle-progress" stroke="#fff" fill="none" stroke-width="3" stroke-dasharray="113.097" stroke-dashoffset="113.097" cx="15" cy="15" r="18"/>
  </g>
  <path class="cls-1" d="m13.17,7.67c.61.61.61,1.83,0,1.83-1.21,0-4.28-.61-5.5-.61-.61.61-1.06,1.75-.71,3.39.36,1.69,1.07,1.24,1.58.73.61-.61,3.4-1.07,3.4,1.99s-2.79,2.6-3.4,1.99c-.51-.51-1.23-.97-1.58.73-.35,1.65.1,2.78.71,3.39,1.22,0,4.29-.61,5.5-.61.61,0,.61,1.22,0,1.83-1.83,1.83-.61,3.67,1.83,3.67s3.67-1.83,1.83-3.67c-.61-.61-.61-1.83,0-1.83,1.21,0,4.28.61,5.5.61.61-.61,1.06-1.75.71-3.39-.36-1.69-1.07-1.24-1.58-.73-.61.61-3.4,1.07-3.4-1.99s2.79-2.6,3.4-1.99c.51.51,1.23.97,1.58-.73.35-1.65-.1-2.78-.71-3.39-1.22,0-4.29.61-5.5.61-.61,0-.61-1.22,0-1.83,1.83-1.83.61-3.67-1.83-3.67s-3.67,1.83-1.83,3.67Z" fill="#fff" />
</svg>