<svg xmlns="http://www.w3.org/2000/svg" viewBox="0 0 30 30">
    <path class="roadmap-background-circle" d="M30 15A15 15 0 1 1 15 0a15 15 0 0 1 15 15" fill="#999"/>
    <g transform="rotate(-90 15 15)">
        <circle class="circle-bg" stroke="#fff" fill="none" stroke-width="3" cx="15" cy="15" r="18"/>
        <circle class="roadmap-circle-progress" stroke="#fff" fill="none" stroke-width="3" stroke-dasharray="113.097" stroke-dashoffset="113.097" cx="15" cy="15" r="18"/>
    </g>
    <path d="M 22.62 20.415 L 17.49 10.155 V 5.25 s 1.335 -0.3 1.29 -1.5 a 1.23 1.23 90 0 0 -1.29 -1.23 H 12.51 a 1.23 1.23 90 0 0 -1.29 1.23 c 0 1.155 1.29 1.5 1.29 1.5 V 10.155 L 7.38 20.415 a 10.5 10.5 90 0 0 -1.275 3.33 c 0 1.815 1.275 1.815 1.275 1.815 H 22.62 s 1.275 0 1.275 -1.815 A 10.5 10.5 90 0 0 22.62 20.415 Z m -2.1 3.24 H 9.48 s -0.915 0 -0.915 -1.305 a 7.59 7.59 90 0 1 0.915 -2.415 l 4.14 -8.7 V 4.5 s -1.35 0 -1.35 -0.615 s 0.93 -0.465 0.93 -0.465 h 3.6 s 0.93 -0.12 0.93 0.465 s -1.35 0.615 -1.35 0.615 V 11.235 l 4.14 8.7 a 7.59 7.59 90 0 1 0.915 2.415 C 21.435 23.655 20.52 23.655 20.52 23.655 Z" fill="#fff"/>
    <path d="M 18.675 19.785 L 17.4 17.1 a 2.49 2.49 90 0 0 -1.5 -0.435 c -0.42 0 -1.5 0.75 -2.145 0.39 a 1.125 1.125 90 0 0 -1.23 0.09 l -1.26 2.64 a 5.04 5.04 90 0 0 -0.615 1.605 c 0 0.87 0.615 0.87 0.615 0.87 h 7.35 s 0.615 0 0.615 -0.87 A 5.04 5.04 90 0 0 18.675 19.785 Z" fill="#fff"/>
</svg>