<svg xmlns="http://www.w3.org/2000/svg" viewBox="0 0 30 30"><g id="Layer_50" data-name="Layer 50"><path class="roadmap-background-circle" d="M30,15A15,15,0,1,1,15,0,15,15,0,0,1,30,15" fill="#999"/>    <g transform-origin="15px 15px" transform="rotate(-90)">
    <!-- normal background circle -->
    <circle class="circle-bg" stroke="#fff" fill="none" stroke-width="3" cx="15" cy="15" r="18"></circle>
    <!-- progress circle, dashoffset initialized to be hidden before JS changes it; color must change along with background circle -->
    <circle class="roadmap-circle-progress" stroke="#fff" fill="none" stroke-width="3" stroke-dasharray="113.0973355292" stroke-dashoffset="113.0973355292" cx="15" cy="15" r="18"></circle>
</g><path d="M15.74,18.57C13.06,21.25,8.8,23.34,7.45,22s.75-5.6,3.43-8.28L9.43,12.26c-4.29,4.29-6,9.5-3.88,11.65s7.35.4,11.64-3.88Z" fill="#fff"/><path d="M20.57,16.65c4.29-4.29,6-9.51,3.88-11.65S17.1,4.59,12.81,8.88l1.45,1.46c2.68-2.68,7-4.77,8.28-3.43s-.74,5.6-3.42,8.28Z" fill="#fff"/><path d="M18.46,11c.54.54-.58,2.52-2.49,4.43s-3.9,3-4.43,2.5.58-2.52,2.49-4.44,3.9-3,4.43-2.49" fill="#fff"/></g></svg>