<svg xmlns="http://www.w3.org/2000/svg" viewBox="0 0 40 40">
    <circle cx="15" cy="15" r="1.5" fill="#fff"/>
    <path d="M 15 10.59 c -6.615 0 -12 1.875 -12 4.185 s 5.37 4.185 12 4.185 s 12 -1.875 12 -4.185 S 21.585 10.59 15 10.59 Z m 0 6.795 c -6 0 -10.755 -1.5 -10.755 -3.21 S 9 10.965 15 10.965 s 10.74 1.5 10.74 3.21 S 20.895 17.385 15 17.385 Z" fill="#fff"/>
    <path d="M 12 11.82 C 7.32 16.5 4.86 21.6 6.495 23.25 s 6.75 -0.84 11.43 -5.505 s 7.14 -9.795 5.505 -11.43 S 16.68 7.14 12 11.82 Z m 4.815 4.8 c -4.2 4.2 -8.625 6.585 -9.87 5.34 s 1.125 -5.685 5.325 -9.87 s 8.625 -6.585 9.87 -5.34 S 21 12.42 16.815 16.62 Z" fill="#fff"/>
    <path d="M 18 11.82 C 13.245 7.14 8.13 4.68 6.495 6.315 S 7.32 13.065 12 17.745 s 9.795 7.14 11.43 5.505 S 22.605 16.5 18 11.82 Z m -4.8 4.8 C 9 12.42 6.54 8.01 7.785 6.75 S 13.5 7.89 17.655 12.09 s 6.585 8.61 5.34 9.87 S 17.31 20.82 13.125 16.62 Z" fill="#fff"/>
</svg>