<svg xmlns="http://www.w3.org/2000/svg" viewBox="0 0 30 30">
    <path class="roadmap-background-circle" d="M30 15A15 15 0 1 1 15 0a15 15 0 0 1 15 15" fill="#999"/>
    <g transform="rotate(-90 15 15)">
        <circle class="circle-bg" stroke="#fff" fill="none" stroke-width="3" cx="15" cy="15" r="18"/>
        <circle class="roadmap-circle-progress" stroke="#fff" fill="none" stroke-width="3" stroke-dasharray="113.097" stroke-dashoffset="113.097" cx="15" cy="15" r="18"/>
    </g>
    <rect x="16.98" y="14.36" width="2.58" height="0.69" transform="translate(-4.90 11.12) rotate(-30)" fill="#fff"/>
    <rect x="18.11" y="15.86" width="1.94" height="0.48" transform="translate(-5.49 11.69) rotate(-30)" fill="#fff"/>
    <rect x="10.73" y="2.87" width="2.04" height="1.02" transform="translate(-0.12 6.33) rotate(-30)" fill="#fff"/>
    <path d="M 12.705 6.66 a 1.935 1.935 90 0 1 0.96 3.63 l 2.4 4.155 l 3.105 -1.785 L 14.055 3.81 L 10.965 5.595 l 0.78 1.35 A 1.89 1.89 90 0 1 12.705 6.66 Z" fill="#fff"/>
    <path d="M 20.67 19.5 h 3.795 v -1.17 H 15 V 19.5 h 2.58 s -2.865 1.755 -4.41 0.795 C 9.165 17.73 12.075 12.3 13.23 10.5 a 2.175 2.175 90 0 1 -0.525 0.105 a 1.95 1.95 90 0 1 -1.71 -1.05 C 6.975 17.295 9 21.735 11.85 23.25 H 7.035 V 25.5 h 14.145 V 23.25 H 14.7 C 18.165 23.25 20.67 19.5 20.67 19.5 Z" fill="#fff"/>
    <circle cx="12.71" cy="8.61" r="0.68" fill="#fff"/>
</svg>