<svg xmlns="http://www.w3.org/2000/svg" viewBox="0 0 40 40">
  <path d="m24.68,8.41c-.33-.05-.61-.28-.71-.59-.08-.22-.17-.44-.27-.66-.14-.3-.1-.64.09-.91.26-.37.53-.73.79-1.1l-2.05-2.05c-.35.25-.71.51-1.06.76-.27.19-.63.23-.92.09-.23-.11-.47-.21-.71-.3-.31-.11-.53-.39-.58-.71-.07-.45-.14-.89-.22-1.34h-2.89c-.07.44-.14.87-.22,1.31-.05.33-.28.6-.59.71-.26.09-.5.19-.74.3-.3.14-.65.1-.91-.09-.35-.25-.7-.51-1.05-.76l-2.05,2.05c.25.35.5.7.76,1.05.19.27.23.62.09.91-.12.24-.22.49-.31.75-.11.31-.39.53-.71.59l-1.24.2v2.89l1.26.21c.32.05.6.27.71.58.09.26.2.51.32.75.15.3.11.65-.09.92-.25.35-.5.69-.75,1.04l2.05,2.05,1.08-.78c.26-.19.61-.23.91-.09.23.11.46.2.7.28.31.11.54.38.59.71.07.42.14.84.21,1.26h2.89c.07-.43.14-.86.21-1.3.05-.32.27-.6.58-.71.23-.08.45-.17.67-.28.3-.14.65-.11.92.09l1.09.78,2.05-2.05c-.26-.36-.52-.73-.78-1.09-.19-.27-.23-.62-.09-.92.1-.22.19-.44.28-.66.11-.31.38-.53.71-.58.45-.07.91-.15,1.36-.22v-2.89c-.45-.07-.9-.15-1.34-.22Zm-7.12,5.9c-2.38,0-4.31-1.93-4.31-4.31s1.93-4.31,4.31-4.31,4.31,1.93,4.31,4.31-1.93,4.31-4.31,4.31Z" style="fill: #fff;"/>
  <path d="m14.47,21.24c-.21-.03-.38-.17-.45-.37-.05-.14-.11-.28-.17-.42-.09-.19-.06-.41.06-.57.17-.23.33-.46.5-.69l-1.29-1.29c-.22.16-.45.32-.67.48-.17.12-.4.15-.58.05-.15-.07-.29-.14-.45-.19-.19-.07-.33-.24-.36-.45-.05-.28-.09-.56-.14-.85h-1.83c-.05.28-.09.55-.14.83-.03.21-.17.38-.37.45-.16.05-.32.12-.47.19-.19.09-.41.06-.58-.06-.22-.16-.44-.32-.66-.48l-1.29,1.29c.16.22.32.44.48.67.12.17.15.39.06.58-.07.15-.14.31-.19.47-.07.2-.24.34-.45.37l-.78.13v1.83l.8.13c.2.03.38.17.45.37.06.16.12.32.2.47.09.19.07.41-.06.58-.16.22-.32.44-.47.66l1.29,1.29.68-.49c.17-.12.39-.15.57-.06.14.07.29.13.44.18.2.07.34.24.37.45.04.27.09.53.13.8h1.83c.04-.27.09-.55.13-.82.03-.2.17-.38.37-.45.14-.05.28-.11.42-.18.19-.09.41-.07.58.05l.69.49,1.29-1.29c-.16-.23-.33-.46-.49-.69-.12-.17-.15-.39-.06-.58.07-.14.12-.28.17-.42.07-.2.24-.33.45-.37.29-.05.57-.09.86-.14v-1.83c-.28-.05-.57-.09-.85-.14Zm-4.49,3.73c-1.5,0-2.72-1.22-2.72-2.72s1.22-2.72,2.72-2.72,2.72,1.22,2.72,2.72-1.22,2.72-2.72,2.72Z" style="fill: #fff;"/>
</svg>