<svg xmlns="http://www.w3.org/2000/svg" viewBox="0 0 30 30"><title>icon-42</title><g id="Layer_41" data-name="Layer 41"><path class="roadmap-background-circle" d="M30,15A15,15,0,1,1,15,0,15,15,0,0,1,30,15" fill="#427e93"/><path d="M19.69,2.21l-8.1,8.1,8.1,8.1,8.1-8.1Zm0,15.65-7.55-7.55,7.55-7.55,7.55,7.55Z" fill="#fff"/><path d="M10.31,11.59l-8.1,8.1,8.1,8.1,8.1-8.1Zm0,15.65L2.76,19.69l7.55-7.55,7.55,7.55Z" fill="#fff"/><path d="M20.72,7.06a1.16,1.16,0,1,1,0-1.64,1.16,1.16,0,0,1,0,1.64" fill="#fff"/><path d="M11.13,20.51a1.16,1.16,0,1,1,0-1.64,1.16,1.16,0,0,1,0,1.64" fill="#fff"/><path d="M16.43,11.35a1.16,1.16,0,1,1-1.64-1.64,1.16,1.16,0,0,1,1.64,1.64" fill="#fff"/><path d="M24.71,11.05a1.16,1.16,0,1,1,0-1.64,1.15,1.15,0,0,1,0,1.64" fill="#fff"/><path d="M20.51,11.13a1.16,1.16,0,1,1,0-1.64,1.16,1.16,0,0,1,0,1.64" fill="#fff"/><path d="M20.43,15.34a1.16,1.16,0,0,1-1.64,0,1.15,1.15,0,0,1,0-1.64,1.16,1.16,0,0,1,1.64,1.64" fill="#fff"/></g></svg>