<svg xmlns="http://www.w3.org/2000/svg" viewBox="0 0 30 30"><g id="Layer_28" data-name="Layer 28"><path class="roadmap-background-circle" d="M30,15A15,15,0,1,1,15,0,15,15,0,0,1,30,15" fill="#999"/>    <g transform-origin="15px 15px" transform="rotate(-90)">
    <!-- normal background circle -->
    <circle class="circle-bg" stroke="#fff" fill="none" stroke-width="3" cx="15" cy="15" r="18"></circle>
    <!-- progress circle, dashoffset initialized to be hidden before JS changes it; color must change along with background circle -->
    <circle class="roadmap-circle-progress" stroke="#fff" fill="none" stroke-width="3" stroke-dasharray="113.0973355292" stroke-dashoffset="113.0973355292" cx="15" cy="15" r="18"></circle>
</g><polygon points="14.44 20.88 14.44 23.36 5.29 23.36 5.29 10.25 15.27 10.25 15.27 9.4 4.46 9.4 4.46 24.27 15.27 24.27 15.27 19.55 14.44 20.88" fill="#fff"/><rect x="6.47" y="12.04" width="5.55" height="0.68" fill="#fff"/><rect x="6.47" y="15.5" width="3.05" height="0.68" fill="#fff"/><rect x="6.47" y="18.96" width="3.36" height="0.68" fill="#fff"/><polygon points="12.74 16.49 13.36 16.39 13.15 17.06 14.27 16.83 11.57 18.18 12.92 15.48 12.74 16.49" fill="#fff"/><path d="M14.82,13.16a4.92,4.92,0,0,1-.89.3l5.78-5.77a3.07,3.07,0,0,0,.05.53s-4.85,4.9-4.94,4.94" fill="#fff"/><path d="M15.75,14.72c-.58.24-1.16.47-1.32.25.13-.34.24-.62.38-.92C14.87,13.93,20,8.84,20,8.88a1.89,1.89,0,0,0,.81.8s-4.93,5-5,5" fill="#fff"/><path d="M22.06,10l-5.77,5.78c-.19,0-.19-.31-.09-.68,0-.07,5.17-5.21,5.21-5.2a2.76,2.76,0,0,0,.65.1" fill="#fff"/><path d="M20.43,7l.26-.26a2.31,2.31,0,0,0,2.36,2.36l-.26.26A2.31,2.31,0,0,1,20.43,7" fill="#fff"/><path d="M21.41,6,22.59,4.8A2.31,2.31,0,0,1,25,7.16L23.77,8.34A2.31,2.31,0,0,1,21.41,6" fill="#fff"/></g></svg>