<svg xmlns="http://www.w3.org/2000/svg" viewBox="0 0 40 40">
    <path fill="#fff" d="M12.3 18.67h7.21v.89H12.3zM22.82 23.79h1.12v-1.68l-1.12 1.68zM12.3 16.66v.05h4.51v-.89H14.2a6 6 0 0 1-1.9.84M16.46 13a5.71 5.71 0 0 1-.45.89h5.24V13ZM16.84 10.12c0 .2.06.4.06.6a2.85 2.85 0 0 1 0 .29h2.65v-.89ZM16.32 8.16h.49v-.89h-1a5.42 5.42 0 0 1 .48.89"/>
    <path d="M10.73 22.58v-5.69a6.72 6.72 0 0 1-1.1-.11v7h5.63l-.64-1.21ZM9.63 4.11v.56a5.78 5.78 0 0 1 1.1-.11 6.16 6.16 0 0 1 2.77.68h9.34v9.5l.51-.89h.59V4.11ZM15.42 21.27h2.19l1.22 2.84 5.29-8.91h2.96l-8.42 12.57-3.24-6.5z" fill="#fff"/>
    <path d="M13.7 13.71a4.22 4.22 0 1 0-6.43-.55L2 18.46l1 1 5.3-5.3a4.21 4.21 0 0 0 5.42-.45m-5.51-.47a3.56 3.56 0 1 1 5 0 3.55 3.55 0 0 1-5 0" fill="#fff"/>
</svg>