<svg xmlns="http://www.w3.org/2000/svg" viewBox="0 0 30 30"><g id="Layer_13" data-name="Layer 13"><path class="roadmap-background-circle" d="M30,15A15,15,0,1,1,15,0,15,15,0,0,1,30,15" fill="#999"/>    <g transform-origin="15px 15px" transform="rotate(-90)">
    <!-- normal background circle -->
    <circle class="circle-bg" stroke="#c0c0c0" fill="none" stroke-width="3" cx="15" cy="15" r="18"></circle>
    <!-- progress circle, dashoffset initialized to be hidden before JS changes it; color must change along with background circle -->
    <circle class="roadmap-circle-progress" stroke="#4156A1" fill="none" stroke-width="3" stroke-dasharray="113.0973355292" stroke-dashoffset="113.0973355292" cx="15" cy="15" r="18"></circle>
</g><polygon points="6.95 22.24 7.92 22.08 7.6 23.11 9.33 22.76 5.14 24.86 7.24 20.67 6.95 22.24" fill="#fff"/><path d="M10.18,17.08a7.77,7.77,0,0,1-1.37.46L17.75,8.6a4.22,4.22,0,0,0,.08.82c0,.09-7.51,7.6-7.65,7.66" fill="#fff"/><path d="M11.62,19.49c-.91.37-1.79.72-2,.39.2-.52.36-.95.58-1.42.09-.19,8-8.08,8-8a3,3,0,0,0,1.25,1.24c.06,0-7.62,7.73-7.8,7.8" fill="#fff"/><path d="M21.4,12.25l-8.94,8.94c-.29,0-.29-.47-.14-1,0-.12,8-8.08,8.06-8.06a4.31,4.31,0,0,0,1,.16" fill="#fff"/><path d="M18.87,7.48l.41-.41s0,3.66,3.65,3.66l-.41.4s-3.65,0-3.65-3.65" fill="#fff"/><path d="M20.39,6l1.83-1.82s3.65,0,3.65,3.65L24.05,9.61s-3.66,0-3.66-3.66" fill="#fff"/></g></svg>