<svg xmlns="http://www.w3.org/2000/svg" viewBox="0 0 40 40">
    <path d="M14.395 6.669c-1.096.386-1.791 1.532-1.605 2.644.239 1.424 1.628 2.363 2.978 2.012a2.468 2.468 0 0 0 1.842-2.012c.188-1.127-.53-2.286-1.646-2.659-.446-.149-1.123-.143-1.569.015M6.45 7.755c-.898.153-1.692.885-1.923 1.772-.321 1.232.326 2.453 1.548 2.924.415.16 1.165.163 1.596.006 1.436-.522 2.045-2.106 1.34-3.484-.236-.462-.763-.908-1.311-1.11a2.812 2.812 0 0 0-1.25-.108m16.15-.002c-.425.073-.969.365-1.294.695a2.42 2.42 0 0 0 0 3.404c.349.354.872.623 1.382.708.744.124 1.493-.132 2.066-.706.389-.39.571-.737.682-1.298.073-.372.073-.44 0-.812-.101-.511-.275-.869-.59-1.214a2.459 2.459 0 0 0-2.246-.777m3.275 5.445c-.703.186-1.715.637-3.019 1.347-.519.282-.679.349-.712.297a.279.279 0 0 1-.043-.101 1.047 1.047 0 0 0-.051-.167c-.049-.127-.075-.101-.81.81-2.593 3.213-2.414 3.003-2.428 2.841-.1-1.147-.579-2.939-1.002-3.746-.214-.409-.644-.891-.931-1.045-.197-.105-.258-.109-1.679-.109-1.452 0-1.478.002-1.695.117-.797.426-1.495 1.977-1.829 4.068-.068.426-.223 2.335-.225 2.774-.001.156-.006.159-.288.19a2.153 2.153 0 0 0-.392.074c-.066.027-.615.908-1.513 2.43-.775 1.313-1.403 2.394-1.394 2.402.008.009.284-.017.613-.056 1.34-.159 3.524-.054 4.205.202a5.96 5.96 0 0 1 2.154 1.382l.361.358.339-.34a5.796 5.796 0 0 1 1.986-1.329c.671-.267 1.115-.318 2.786-.32.816-.001 1.496.011 1.512.026.026.026-.744 2.764-.806 2.864-.111.181.49-.424 3.748-3.773l3.679-3.781.47-2.506.471-2.507-.399-.462c-.48-.556-1.613-1.686-1.895-1.891-.177-.128-.245-.147-.533-.144a3.282 3.282 0 0 0-.68.095m-23.036.338c-.094.014-.293.186-.643.555-.487.512-1.348 1.6-1.457 1.839-.042.092.042.494.434 2.062l.487 1.948 3.327 3.542c4.753 5.061 4.359 4.661 3.612 3.668a12.11 12.11 0 0 1-.492-.686c-.096-.18-.443-1.678-.577-2.489-.203-1.225-.251-1.834-.251-3.125.001-1.436.07-2.082.399-3.753.248-1.259.259-1.391.135-1.54-.102-.121-1.705-.985-2.568-1.384-.699-.324-1.348-.548-1.795-.62-.33-.053-.369-.054-.611-.017m19.618 5.873c.09 1.445-.012 2.929-.313 4.531-.058.311-.111.558-.118.55a297.012 297.012 0 0 1-2.205-3.757c-.018-.046.053-.149.188-.272 1.438-1.32 2.322-2.098 2.351-2.07.019.019.063.477.097 1.018" fill="#fff"/>
</svg>