<svg xmlns="http://www.w3.org/2000/svg" viewBox="0 0 30 30"><g id="Layer_27" data-name="Layer 27"><path class="roadmap-background-circle" d="M30,15A15,15,0,1,1,15,0,15,15,0,0,1,30,15" fill="#999"/>    <g transform-origin="15px 15px" transform="rotate(-90)">
    <!-- normal background circle -->
    <circle class="circle-bg" stroke="#fff" fill="none" stroke-width="3" cx="15" cy="15" r="18"></circle>
    <!-- progress circle, dashoffset initialized to be hidden before JS changes it; color must change along with background circle -->
    <circle class="roadmap-circle-progress" stroke="#fff" fill="none" stroke-width="3" stroke-dasharray="113.0973355292" stroke-dashoffset="113.0973355292" cx="15" cy="15" r="18"></circle>
</g><path d="M13.94,15A1.08,1.08,0,1,1,15,16.08,1.08,1.08,0,0,1,13.94,15" fill="#fff"/><path d="M14.62,13.22a1.59,1.59,0,0,1,2,.9l3-9.12Z" fill="#fff"/><rect x="14.62" y="2" width="0.75" height="6" fill="#fff"/><rect x="19.49" y="7.63" width="6" height="0.75" transform="translate(0.93 18.25) rotate(-45)" fill="#fff"/><rect x="22.49" y="14.62" width="6" height="0.75" fill="#fff"/><rect x="7.18" y="5" width="0.75" height="6" transform="translate(-3.45 7.69) rotate(-45)" fill="#fff"/><rect x="1.56" y="14.62" width="6" height="0.75" fill="#fff"/></g></svg>