<svg xmlns="http://www.w3.org/2000/svg" viewBox="0 0 40 40">
  <path d="m9.83,13.61s0,0,0,0c0-2.76,2.24-4.99,4.99-4.99s4.99,2.24,4.99,4.99c0,0,0,0,0,0h4.82v-1.6c-.52-.08-1.04-.17-1.56-.25-.38-.06-.7-.32-.83-.68-.09-.26-.19-.52-.31-.76-.16-.34-.11-.74.11-1.05.3-.42.61-.85.91-1.27l-2.37-2.37c-.41.3-.82.59-1.23.89-.31.23-.73.27-1.07.1-.27-.13-.54-.25-.82-.35-.36-.13-.61-.45-.67-.82-.08-.52-.17-1.03-.25-1.55h-3.35c-.08.51-.17,1.01-.25,1.52-.06.38-.32.7-.68.82-.3.1-.58.22-.86.35-.34.17-.75.12-1.06-.11-.41-.29-.81-.59-1.22-.88l-2.37,2.37c.29.41.58.82.88,1.22.22.31.27.72.1,1.06-.14.28-.25.57-.36.87-.12.36-.45.62-.83.68l-1.44.23v1.6h4.73Z" style="fill: #fff;"/>
  <path d="m14.49,13.53v11.74c-2.35-2.35-9.39,0-9.39,0v-11.74s7.04-2.35,9.39,0Zm-8.36,1.02v1.14s5.72-1.65,7.34,0v-1.14c-1.58-1.97-7.34,0-7.34,0Zm6.31,1.75c-2.23-.73-6.31.66-6.31.66v1.14s4.05-1.17,6.3-.56c0-.27,0-.85.01-1.25Zm.65,2.83c-1.96-1.36-6.96.35-6.96.35l.02,1.23s4.94-1.43,6.94-.3c.07-.27.01-.98,0-1.28Zm-6.96,2.87v1.14s5.72-1.65,7.34,0v-1.14c-1.58-1.97-7.34,0-7.34,0Z" style="fill: #fff;"/>
  <path d="m24.66,13.53v11.74s-7.04-2.35-9.39,0c0,0,0-9.39,0-11.74,2.35-2.35,9.39,0,9.39,0Zm-8.42,1.02c0,.16.06,1.14.06,1.14,1.61-1.65,7.34,0,7.34,0l-.06-1.14s-5.75-1.97-7.34,0Zm0,2.41c0,.16.01,1.14.01,1.14,1.07-1.1,3.95-.74,5.77-.37,0-.3.01-.82.01-1.21-1.82-.44-4.73-.87-5.79.44Zm0,2.52c0,.16.01,1.14.01,1.14,1.3-1.33,5.24-.52,6.74-.15,0-.26.01-.8.01-1.17-1.49-.43-5.49-1.41-6.77.18Zm0,2.52c0,.16,0,1.14,0,1.14.89-.91,3.04-.82,4.78-.55,0-.28,0-.9,0-1.24-1.75-.32-3.92-.45-4.8.65Z" style="fill: #fff;"/>
</svg>