<svg xmlns="http://www.w3.org/2000/svg" viewBox="0 0 30 30">
    <path class="roadmap-background-circle" d="M30 15A15 15 0 1 1 15 0a15 15 0 0 1 15 15" fill="#999"/>
    <g transform="rotate(-90 15 15)">
        <circle class="circle-bg" stroke="#fff" fill="none" stroke-width="3" cx="15" cy="15" r="18"/>
        <circle class="roadmap-circle-progress" stroke="#fff" fill="none" stroke-width="3" stroke-dasharray="113.097" stroke-dashoffset="113.097" cx="15" cy="15" r="18"/>
    </g>
    <path d="M15.74 18.57C13.06 21.25 8.8 23.34 7.45 22s.75-5.6 3.43-8.28l-1.45-1.46c-4.29 4.29-6 9.5-3.88 11.65s7.35.4 11.64-3.88ZM20.57 16.65c4.29-4.29 6-9.51 3.88-11.65s-7.35-.41-11.64 3.88l1.45 1.46c2.68-2.68 7-4.77 8.28-3.43s-.74 5.6-3.42 8.28Z" fill="#fff"/>
    <path d="M18.46 11c.54.54-.58 2.52-2.49 4.43s-3.9 3-4.43 2.5.58-2.52 2.49-4.44 3.9-3 4.43-2.49" fill="#fff"/>
</svg>