<svg xmlns="http://www.w3.org/2000/svg" viewBox="0 0 30 30"><g id="Layer_40" data-name="Layer 40"><path class="roadmap-background-circle" d="M30,15A15,15,0,1,1,15,0,15,15,0,0,1,30,15" fill="#999"/><path d="M5.84,24.34h12.5V11.84H5.84Zm2.6-.68A1.54,1.54,0,1,1,10,22.12a1.54,1.54,0,0,1-1.54,1.54m0-4A1.54,1.54,0,1,1,10,18.09a1.54,1.54,0,0,1-1.54,1.54m0-4A1.54,1.54,0,1,1,10,14.06,1.54,1.54,0,0,1,8.44,15.6m7.5,8.06a1.54,1.54,0,1,1,1.54-1.54,1.54,1.54,0,0,1-1.54,1.54m0-4a1.54,1.54,0,1,1,1.54-1.54,1.54,1.54,0,0,1-1.54,1.54m0-4a1.54,1.54,0,1,1,1.54-1.54,1.54,1.54,0,0,1-1.54,1.54" fill="#fff"/><path d="M10.8,5.66,5.87,10.59H18.38l4.93-4.93ZM9.73,10.34c-1,0-1.82-.3-1.82-.66S8.72,9,9.73,9s1.81.3,1.81.67-.81.66-1.81.66m4.74-1.55c-1,0-1.81-.3-1.81-.67s.81-.67,1.81-.67,1.81.3,1.81.67-.81.67-1.81.67m4.75-1.7c-1,0-1.82-.29-1.82-.66s.82-.67,1.82-.67,1.81.3,1.81.67-.81.66-1.81.66" fill="#fff"/><path d="M19.25,11.84v12.5l4.91-5.42V6.42Zm1,10.47c-.36.37-.65,0-.65-.76a3.4,3.4,0,0,1,.65-2.07c.36-.36.66,0,.66.76a3.38,3.38,0,0,1-.66,2.07m0-7.42c-.36.36-.65,0-.65-.77a3.4,3.4,0,0,1,.65-2.07c.36-.36.66,0,.66.76a3.41,3.41,0,0,1-.66,2.08M21.84,17c-.36.36-.66,0-.66-.77a3.4,3.4,0,0,1,.66-2.07c.36-.36.65,0,.65.76A3.41,3.41,0,0,1,21.84,17m1.6,2.11c-.36.36-.66,0-.66-.76a3.41,3.41,0,0,1,.66-2.08c.36-.36.65,0,.65.77a3.4,3.4,0,0,1-.65,2.07m0-7.43c-.36.36-.66,0-.66-.76a3.43,3.43,0,0,1,.66-2.08c.36-.36.65,0,.65.77a3.4,3.4,0,0,1-.65,2.07" fill="#fff"/></g></svg>