<svg xmlns="http://www.w3.org/2000/svg" viewBox="0 0 30 30"><g id="Layer_8" data-name="Layer 8"><path d="M30,15A15,15,0,1,1,15,0,15,15,0,0,1,30,15" fill="#999"/><path d="M14.53,8.62v14c-2.8-2.8-11.19,0-11.19,0v-14s8.39-2.8,11.19,0m-10,1v1.06s6.82-1.54,8.75,0V9.61c-1.89-1.83-8.75,0-8.75,0m7.52,1.62c-2.66-.68-7.52.62-7.52.62v1.07s4.82-1.09,7.5-.52c0-.25,0-.79,0-1.17m.78,2.64c-2.34-1.27-8.3.32-8.3.32l0,1.15s5.9-1.33,8.28-.28a5.26,5.26,0,0,0,0-1.19m-8.3,2.67V17.6s6.82-1.54,8.75,0V16.54c-1.89-1.83-8.75,0-8.75,0m5.81,1.53a25.54,25.54,0,0,0-5.81.81l0,1.06a30,30,0,0,1,5.79-.68,7.86,7.86,0,0,0,0-1.19" fill="#fff"/><path d="M26.66,8.62v14s-8.39-2.8-11.19,0v-14c2.8-2.8,11.19,0,11.19,0m-10,1c0,.14.07,1.06.07,1.06,1.93-1.54,8.75,0,8.75,0l-.07-1.06s-6.87-1.83-8.75,0m0,2.24c0,.15,0,1.07,0,1.07,1.28-1,4.71-.69,6.88-.35,0-.28,0-.76,0-1.13-2.17-.4-5.65-.81-6.9.41m0,2.34c0,.15,0,1.07,0,1.07,1.55-1.24,6.25-.49,8.05-.15,0-.24,0-.74,0-1.08-1.78-.4-6.55-1.32-8.07.16m0,2.35c0,.14,0,1.06,0,1.06,1.06-.85,3.62-.76,5.7-.51,0-.26,0-.84,0-1.16-2.09-.3-4.67-.41-5.72.61m0,2.34c0,.14,0,1.06,0,1.06,1.44-1.15,5.64-.57,7.65-.21a8.11,8.11,0,0,0,0-1.09c-2-.43-6.28-1.15-7.71.24" fill="#fff"/></g></svg>