<svg xmlns="http://www.w3.org/2000/svg" viewBox="0 0 30 30">
    <path class="roadmap-background-circle" d="M30 15A15 15 0 1 1 15 0a15 15 0 0 1 15 15" fill="#999"/>
    <g transform="rotate(-90 15 15)">
        <circle class="circle-bg" stroke="#fff" fill="none" stroke-width="3" cx="15" cy="15" r="18"/>
        <circle class="roadmap-circle-progress" stroke="#fff" fill="none" stroke-width="3" stroke-dasharray="113.097" stroke-dashoffset="113.097" cx="15" cy="15" r="18"/>
    </g>
    <path class="cls-1" d="M 20.145 21.45 c -0.45 -1.92 -1.485 -1.8 -1.935 -2.67 c -0.27 -0.525 -0.975 -3 -3.33 -3 s -3.03 2.475 -3.315 3 c -0.45 0.87 -1.485 0.765 -1.935 2.67 c -0.09 0.39 0.18 1.875 0.705 2.19 c 1.065 0.645 3.285 -0.3 4.545 -0.3 s 3.615 0.825 4.545 0.3 c 0.54 -0.3 0.795 -1.8 0.705 -2.19 Z" fill="#fff"/>
    <path class="cls-1" d="M 23.175 17.97 c 0.6 -2.025 -0.09 -3.57 -0.72 -3.69 c -0.675 -0.12 -1.635 0.51 -2.295 1.56 c -0.78 1.245 -0.345 2.295 0.21 2.85 c 0.645 0.645 2.415 0.585 2.805 -0.735 Z" fill="#fff"/>
    <path class="cls-1" d="M 6.795 17.985 c -0.615 -2.07 0.09 -3.645 0.735 -3.765 c 0.69 -0.135 1.665 0.525 2.34 1.59 c 0.795 1.275 0.36 2.34 -0.21 2.91 c -0.66 0.66 -2.46 0.585 -2.865 -0.75 Z" fill="#fff"/>
    <path class="cls-1" d="M 10.11 11.52 c -0.165 -2.67 0.99 -3.855 1.74 -3.765 c 1.23 0.165 1.875 1.38 2.295 2.61 c 0.555 1.65 0.33 2.805 -1.215 3.495 c -1.68 0.75 -2.715 -0.75 -2.82 -2.355 Z" fill="#fff"/>
    <path class="cls-1" d="M 19.89 11.505 c 0.165 -2.64 -0.99 -3.825 -1.71 -3.72 c -1.215 0.165 -1.86 1.365 -2.28 2.595 c -0.555 1.635 -0.33 2.775 1.2 3.465 c 1.665 0.75 2.685 -0.75 2.79 -2.325 Z" fill="#fff"/>
    <path class="cls-1" d="M 6.69 11.97 c 0.255 -0.165 0.885 0.915 0.915 1.11 s -0.465 -0.3 -0.78 0.42 s -0.36 -1.395 -0.135 -1.53 Z" fill="#fff"/>
    <path class="cls-1" d="M 23.385 11.97 c -0.255 -0.165 -0.885 0.915 -0.915 1.11 s 0.465 -0.3 0.78 0.42 s 0.36 -1.395 0.135 -1.53 Z" fill="#fff"/>
    <path class="cls-1" d="M 19.065 4.635 c -0.36 -0.15 -0.915 1.35 -0.9 1.59 s 0.525 -0.48 1.065 0.36 s 0.15 -1.815 -0.165 -1.95 Z" fill="#fff"/>
    <path class="cls-1" d="M 11.04 4.635 c 0.36 -0.15 0.915 1.35 0.9 1.59 s -0.525 -0.48 -1.065 0.36 s -0.15 -1.815 0.165 -1.95 Z" fill="#fff"/>
</svg>