<svg xmlns="http://www.w3.org/2000/svg" viewBox="0 0 30 30">
    <path class="roadmap-background-circle" d="M30 15A15 15 0 1 1 15 0a15 15 0 0 1 15 15" fill="#999"/>
    <g transform="rotate(-90 15 15)">
        <circle class="circle-bg" stroke="#fff" fill="none" stroke-width="3" cx="15" cy="15" r="18"/>
        <circle class="roadmap-circle-progress" stroke="#fff" fill="none" stroke-width="3" stroke-dasharray="113.097" stroke-dashoffset="113.097" cx="15" cy="15" r="18"/>
    </g>
    <path d="M18.32 8.55A3.32 3.32 0 1 1 15 5.23a3.31 3.31 0 0 1 3.32 3.32M5.21 22C6.57 22 8 21.43 8 19.68s-2.78-5-2.78-5v-2s6.59-.2 8.78 2v11c-2.19-2.19-8.78-2-8.78-2Zm-.41-1.52c2.29.68 2.09-2 0-4.12-1.55-1.54-2.28 3.44 0 4.12M24.79 23.68s-6.59-.2-8.78 2v-11c2.19-2.2 8.78-2 8.78-2v2s-2.8 3.24-2.8 5S23.43 22 24.79 22Zm.41-7.32c-2.09 2.09-2.29 4.8 0 4.12s1.55-5.66 0-4.12" fill="#fff"/>
</svg>