<svg xmlns="http://www.w3.org/2000/svg" viewBox="0 0 30 30">
    <path class="roadmap-background-circle" d="M30 15A15 15 0 1 1 15 0a15 15 0 0 1 15 15" fill="#999"/>
    <g transform="rotate(-90 15 15)">
        <circle class="circle-bg" stroke="#fff" fill="none" stroke-width="3" cx="15" cy="15" r="18"/>
        <circle class="roadmap-circle-progress" stroke="#fff" fill="none" stroke-width="3" stroke-dasharray="113.097" stroke-dashoffset="113.097" cx="15" cy="15" r="18"/>
    </g>
    <path fill="#fff" d="M13.11 20.94v2.9h10.1V9.95h-5.03v.8h4.25v12.24h-8.55v-2.05h-.77z"/>
    <path fill="#fff" d="M18.19 12.41h2.53v.63h-2.53zM18.15 15.65h3.16v.63h-3.16zM18.19 18.89h1.89v.63h-1.89zM6.79 20.05h10.1V6.16H6.79Zm9.33-.85H7.57V7h8.55Z"/>
    <path fill="#fff" d="M8.68 8.39h3.18v.63H8.68zM8.68 12.41H15v.63H8.68zM8.68 16.44h5.09v.63H8.68z"/>
</svg>