<svg xmlns="http://www.w3.org/2000/svg" viewBox="0 0 40 40">
    <g style="fill: rgb(255, 255, 255);">
        <path d="m9.9,10.83l14.74-3.07-.71-3.44L4.63,8.34l.55,2.66v12.22c0,.46.37.83.83.83h18.05c.46,0,.83-.37.83-.83v-12.39h-14.99Zm10.23.88l-3.01,2.05h-2.63l3.01-2.05h2.63Zm-3.95-.04l-3.01,2.05h-2.63l3.01-2.05h2.63Zm4.53-6.11l3.48,1.46-2.66.56-3.49-1.46,2.67-.56Zm-4.08.85l3.48,1.46-2.66.56-3.49-1.46,2.67-.56Zm-4,.83l3.48,1.47-2.66.55-3.49-1.46,2.67-.56Zm-6.75,1.41l2.67-.56,3.48,1.47-2.66.55-3.49-1.46Zm3.64,3.02h2.63l-3.01,2.05h-2.63l3.01-2.05Zm13.81,11H6.74v-7.84h16.59v7.84Zm-2.18-8.91h-2.63l3.01-2.05h2.63l-3.01,2.05Z" style="fill: #fff;"></path>
        <polygon points="17.67 19.02 13.72 21.3 13.72 16.74 17.67 19.02" style="fill: #fff;"></polygon>
    </g>
</svg>