<svg xmlns="http://www.w3.org/2000/svg" viewBox="0 0 30 30"><g id="Layer_26" data-name="Layer 26"><path class="roadmap-background-circle" d="M30,15A15,15,0,1,1,15,0,15,15,0,0,1,30,15" fill="#999"/>    <g transform-origin="15px 15px" transform="rotate(-90)">
    <!-- normal background circle -->
    <circle class="circle-bg" stroke="#fff" fill="none" stroke-width="3" cx="15" cy="15" r="18"></circle>
    <!-- progress circle, dashoffset initialized to be hidden before JS changes it; color must change along with background circle -->
    <circle class="roadmap-circle-progress" stroke="#fff" fill="none" stroke-width="3" stroke-dasharray="113.0973355292" stroke-dashoffset="113.0973355292" cx="15" cy="15" r="18"></circle>
</g><path d="M22,18.5a1.31,1.31,0,1,1-1.31-1.31A1.31,1.31,0,0,1,22,18.5" fill="#fff"/><path d="M19.36,15.69H22V12.41s3.14.41,3.14-4c0-3.07-2.94-3.34-4-3.34s-4.58-.48-4.58,2.77h1.61s-.34-1.24,2.67-1.24,2.23,3.79,1.11,3.79H19.33Z" fill="#fff"/><polygon points="4.88 11.4 9.62 23.24 11.99 20.87 16.72 25.61 19.09 23.24 14.36 18.5 16.72 16.13 4.88 11.4" fill="#fff"/></g></svg>