<svg xmlns="http://www.w3.org/2000/svg" viewBox="0 0 30 30"><title>icon-20</title><g id="Layer_31" data-name="Layer 31"><path class="roadmap-background-circle" d="M30,15A15,15,0,1,1,15,0,15,15,0,0,1,30,15" fill="#999"/><polygon points="18.57 15.88 18.57 23.83 7.89 23.83 7.89 8.52 10.78 8.52 10.78 7.51 6.91 7.51 6.91 24.89 19.55 24.89 19.55 15.88 18.57 15.88" fill="#fff"/><rect x="10.12" y="10.6" width="1.82" height="0.79" fill="#fff"/><rect x="10.12" y="14.65" width="3.57" height="0.79" fill="#fff"/><rect x="10.12" y="18.69" width="7.07" height="0.79" fill="#fff"/><path d="M21.9,12.91H20.25l-.66-1.71h-3L16,12.91H14.36l2.93-7.52h1.6Zm-2.79-3-1-2.78-1,2.78Z" fill="#fff"/><path d="M24.35,11.83v-2h-2V8.53h2v-2h1.31v2h2V9.87h-2v2Z" fill="#fff"/></g></svg>