<svg xmlns="http://www.w3.org/2000/svg" viewBox="0 0 30 30"><title>icon-13</title><g id="Layer_24" data-name="Layer 24"><path class="roadmap-background-circle" d="M30,15A15,15,0,1,1,15,0,15,15,0,0,1,30,15" fill="#999"/><path d="M15,6.25A9.75,9.75,0,1,0,24.75,16,9.74,9.74,0,0,0,15,6.25m0,18.2A8.45,8.45,0,1,1,23.45,16,8.45,8.45,0,0,1,15,24.45" fill="#fff"/><polygon points="16.95 2.95 13.05 2.95 13.05 4.25 14.35 4.25 14.35 7.5 15.65 7.5 15.65 4.25 16.95 4.25 16.95 2.95" fill="#fff"/><path d="M14.35,16a.65.65,0,1,1,.65.65.65.65,0,0,1-.65-.65" fill="#fff"/><path d="M14.35,15.35a1,1,0,0,1,1.3,0L15,9.62Z" fill="#fff"/><path d="M15.88,15.83a1,1,0,0,1-.73,1.08l3.52,1.45Z" fill="#fff"/></g></svg>