<svg xmlns="http://www.w3.org/2000/svg" viewBox="0 0 30 30"><g id="Layer_38" data-name="Layer 38"><path class="roadmap-background-circle" d="M30,15A15,15,0,1,1,15,0,15,15,0,0,1,30,15" fill="#999"/>    <g transform-origin="15px 15px" transform="rotate(-90)">
    <!-- normal background circle -->
    <circle class="circle-bg" stroke="#fff" fill="none" stroke-width="3" cx="15" cy="15" r="18"></circle>
    <!-- progress circle, dashoffset initialized to be hidden before JS changes it; color must change along with background circle -->
    <circle class="roadmap-circle-progress" stroke="#fff" fill="none" stroke-width="3" stroke-dasharray="113.0973355292" stroke-dashoffset="113.0973355292" cx="15" cy="15" r="18"></circle>
</g><path d="M22.63,11.39V7.18a.79.79,0,0,0-.79-.78H5.59a.79.79,0,0,0-.79.78V17.76a.79.79,0,0,0,.79.78H7.17s.6-.44-.3,2.64a12.64,12.64,0,0,0,2.44-2.64V16.82H6.37V14.89h3V13.32H6.37V11.39H22.63ZM21.06,9.94H6.37V8H21.06Z" fill="#fff"/><path d="M24.6,13.72H12.12a.6.6,0,0,0-.6.6v8.12a.6.6,0,0,0,.6.6h1.21s.46-.34-.23,2A9.24,9.24,0,0,0,15,23H24.6a.6.6,0,0,0,.6-.6V14.32a.6.6,0,0,0-.6-.6M24,16.44H12.72V15H24ZM24,19H12.72V17.56H24Zm0,2.68H12.72V20.24H24Z" fill="#fff"/></g></svg>