<svg xmlns="http://www.w3.org/2000/svg" viewBox="0 0 30 30"><g id="Layer_9" data-name="Layer 9"><path class="roadmap-background-circle" d="M30,15A15,15,0,1,1,15,0,15,15,0,0,1,30,15" fill="#999"/>    <g transform-origin="15px 15px" transform="rotate(-90)">
    <!-- normal background circle -->
    <circle class="circle-bg" stroke="#c0c0c0" fill="none" stroke-width="3" cx="15" cy="15" r="18"></circle>
    <!-- progress circle, dashoffset initialized to be hidden before JS changes it; color must change along with background circle -->
    <circle class="roadmap-circle-progress" stroke="#4156A1" fill="none" stroke-width="3" stroke-dasharray="113.0973355292" stroke-dashoffset="113.0973355292" cx="15" cy="15" r="18"></circle>
</g><path d="M18.32,8.55A3.32,3.32,0,1,1,15,5.23a3.31,3.31,0,0,1,3.32,3.32" fill="#fff"/><path d="M5.21,22C6.57,22,8,21.43,8,19.68s-2.78-5-2.78-5v-2s6.59-.2,8.78,2v11c-2.19-2.19-8.78-2-8.78-2ZM4.8,20.48c2.29.68,2.09-2,0-4.12-1.55-1.54-2.28,3.44,0,4.12" fill="#fff"/><path d="M24.79,23.68s-6.59-.2-8.78,2v-11c2.19-2.2,8.78-2,8.78-2v2s-2.8,3.24-2.8,5S23.43,22,24.79,22Zm.41-7.32c-2.09,2.09-2.29,4.8,0,4.12s1.55-5.66,0-4.12" fill="#fff"/></g></svg>