<svg xmlns="http://www.w3.org/2000/svg" viewBox="0 0 30 30">
    <path class="roadmap-background-circle" d="M30 15A15 15 0 1 1 15 0a15 15 0 0 1 15 15" fill="#999"/>
    <g transform="rotate(-90 15 15)">
        <circle class="circle-bg" stroke="#fff" fill="none" stroke-width="3" cx="15" cy="15" r="18"/>
        <circle class="roadmap-circle-progress" stroke="#fff" fill="none" stroke-width="3" stroke-dasharray="113.097" stroke-dashoffset="113.097" cx="15" cy="15" r="18"/>
    </g>
    <path d="M22 18.5a1.31 1.31 0 1 1-1.31-1.31A1.31 1.31 0 0 1 22 18.5M19.36 15.69H22v-3.28s3.14.41 3.14-4c0-3.07-2.94-3.34-4-3.34s-4.58-.48-4.58 2.77h1.61s-.34-1.24 2.67-1.24 2.23 3.79 1.11 3.79h-2.62ZM4.88 11.4l4.74 11.84 2.37-2.37 4.73 4.74 2.37-2.37-4.73-4.74 2.36-2.37L4.88 11.4z" fill="#fff"/>
</svg>