<svg xmlns="http://www.w3.org/2000/svg" viewBox="0 0 30 30">
    <path class="roadmap-background-circle" d="M30 15A15 15 0 1 1 15 0a15 15 0 0 1 15 15" fill="#999"/>
    <g transform="rotate(-90 15 15)">
        <circle class="circle-bg" stroke="#fff" fill="none" stroke-width="3" cx="15" cy="15" r="18"/>
        <circle class="roadmap-circle-progress" stroke="#fff" fill="none" stroke-width="3" stroke-dasharray="113.097" stroke-dashoffset="113.097" cx="15" cy="15" r="18"/>
    </g>
    <path d="M9.625 3.999c-1.166.019-1.63.043-1.712.09-.223.128-.263.299-.263 1.134V6H6.538c-1.028 0-1.126.008-1.279.101-.326.199-.308-.376-.268 8.579.033 7.623.041 8.155.123 8.307.174.321.094.313 3.163.313h2.783l4.241 2.05c4.501 2.175 4.452 2.155 4.766 1.962.104-.063.936-1.433 3.089-5.085 1.621-2.749 2.969-5.012 2.996-5.028a4.56 4.56 0 0 1 .495-.145c.323-.084.479-.151.568-.247.172-.186 1.026-1.64 1.088-1.854.044-.151.03-.243-.096-.611l-.147-.432.176-.293c.098-.16.195-.353.217-.429a.634.634 0 0 0-.165-.573c-.062-.056-1.995-1.011-4.295-2.121l-4.182-2.019-.02-2.025c-.017-1.794-.029-2.043-.105-2.184-.181-.338.117-.317-4.385-.305a573.56 573.56 0 0 0-5.676.038m8.942 4.234c.018 1.696.033 5.034.033 7.417v4.334l-1.162.033c-.64.018-2.809.033-4.82.033H8.961l-.029-1.312c-.017-.722-.039-4.063-.051-7.425L8.86 5.201l1.983-.014c1.09-.007 3.266-.019 4.836-.025l2.855-.012.033 3.083m-8.404-1.509c-.347.151-.473.638-.236.919.199.236.334.255 1.582.217 1.097-.034 1.137-.039 1.258-.152.295-.277.297-.648.005-.904l-.175-.154-1.136.002c-.862.001-1.175.019-1.298.072M7.667 9.833c.018 1.449.034 4.492.036 6.763.002 3.064.018 4.173.062 4.299a.685.685 0 0 0 .201.275c.141.105.147.105 4.063.087l3.921-.019v.805l-4.812.016c-2.647.009-4.828.005-4.845-.009-.018-.014-.049-3.361-.069-7.437L6.188 7.2h1.446l.033 2.633m2.924-.096c-.395.015-.448.029-.584.156a.6.6 0 0 0 .105.959c.161.1.206.101 3.613.069 2.402-.023 3.487-.05 3.573-.089a.767.767 0 0 0 .242-.232c.169-.249.128-.518-.111-.737l-.178-.163-3.113.01c-1.712.006-3.308.018-3.547.027m12.853 1.858 3.555 1.72-.099.161c-.136.219-.128.548.024.952l.125.33-.282.484a7.451 7.451 0 0 1-.35.562c-.037.044-.248.121-.468.171-.22.05-.462.13-.539.176-.1.061-.927 1.424-2.975 4.904a3007.38 3007.38 0 0 1-2.881 4.89c-.036.057-.605-.2-2.824-1.272-1.529-.739-2.78-1.362-2.78-1.383 0-.022.621-.04 1.38-.04 1.187 0 1.399-.011 1.518-.082.269-.159.302-.284.302-1.138v-.78l1.063-.001c.934-.001 1.087-.013 1.27-.096.115-.052.238-.147.273-.211.052-.094.062-1.2.049-5.61-.01-3.608.002-5.487.034-5.475.027.01 1.65.792 3.605 1.738m-11.206.254-2.086.026-.153.152a.583.583 0 0 0-.123.694c.162.34.057.329 3.214.329 1.564 0 3.153-.015 3.53-.033.653-.031.693-.039.829-.166a.59.59 0 0 0-.149-.963c-.192-.096-.379-.098-5.062-.039m-1.647 2.138c-.395.015-.448.029-.584.156a.6.6 0 0 0 .105.959c.161.1.206.101 3.613.069 2.402-.023 3.487-.05 3.573-.089a.767.767 0 0 0 .242-.232c.169-.249.128-.518-.111-.737l-.178-.163-3.113.01c-1.712.006-3.308.018-3.547.027" fill="#fff"/>
</svg>