<svg xmlns="http://www.w3.org/2000/svg" viewBox="0 0 40 40">
    <path fill="#fff" d="m22.01 23.68-.52-.37.63-.33-.97-.65 2.93.98-2.93.97.86-.6zM18.1 24.58a4.74 4.74 0 0 1 .9.42h-8.38a2.67 2.67 0 0 0 .34-.43s7.05 0 7.14 0M18.56 22.79c.59.25 1.17.5 1.13.77l-.93.39c-.14.05-7.49.05-7.48 0a1.91 1.91 0 0 0 0-1.16c0-.05 7.16-.05 7.28 0M10.62 21.61H19c.13.13-.09.35-.42.54h-7.52a2.93 2.93 0 0 0-.4-.54M9.57 25h-.38a2.36 2.36 0 0 0 0-3.41h.38a2.36 2.36 0 0 1 0 3.41M8.15 25h-1.7a2.36 2.36 0 0 1 0-3.41h1.7a2.37 2.37 0 0 1 0 3.41M12.87 18.35h3.64s-.43-3.33.21-4.26 4.47.17 4.47-6c0-4.27-3.56-5.46-6.45-5.46-1.47 0-6.16.24-6.16 4.77h2.62s-.48-1.73 3.72-1.73 3.1 5.27 1.55 5.27-2.38.22-3 1.09c-1 1.23-.55 6.35-.55 6.35"/>
</svg>