<svg xmlns="http://www.w3.org/2000/svg" viewBox="0 0 30 30"><g id="Layer_34" data-name="Layer 34"><path class="roadmap-background-circle" d="M30,15A15,15,0,1,1,15,0,15,15,0,0,1,30,15" fill="#999"/>    <g transform-origin="15px 15px" transform="rotate(-90)">
    <!-- normal background circle -->
    <circle class="circle-bg" stroke="#fff" fill="none" stroke-width="3" cx="15" cy="15" r="18"></circle>
    <!-- progress circle, dashoffset initialized to be hidden before JS changes it; color must change along with background circle -->
    <circle class="roadmap-circle-progress" stroke="#fff" fill="none" stroke-width="3" stroke-dasharray="113.0973355292" stroke-dashoffset="113.0973355292" cx="15" cy="15" r="18"></circle>
</g><path d="M24.81,20.17l-.16.12V9.93l-4.78-5H11.08V16.15L6.57,16,2.7,20.7c.74.71,8.07,3.84,10.05,4A33.31,33.31,0,0,0,21.53,24c3.78-.81,4.35-2.49,5.7-3.64.21-.17.12-2.11-2.42-.18M19.87,5.94l4,4h-4Zm-8,0h7.2v4.79h4.79v10c-1.85.92-3.88.61-6.88.37-3.6-.29-3.27-1.1-2.24-1.63a5.52,5.52,0,0,1,4.43.13s4.33,1.42,2.92-.46c-.81-1.09-8.14-3-9.49-3l-.73,0Z" fill="#fff"/></g></svg>