<svg xmlns="http://www.w3.org/2000/svg" viewBox="0 0 40 40">
    <path fill="#fff" d="M12.35 22.78h5.31v1.83h-5.31zM9.69 25.81h10.62v1.59H9.69zM24.57 7.16c-1.77-2.08-4-.1-4-.1v6.46s5.77-4.27 4-6.36m-3.15 4.4V7.63a1.69 1.69 0 0 1 2.44.06c1.08 1.27-2.44 3.87-2.44 3.87M9.42 13.52V7.06s-2.22-2-4 .1 4 6.36 4 6.36M6.14 7.69a1.7 1.7 0 0 1 2.44-.06v3.93S5.06 9 6.14 7.69M15 4.86h-4.78V12a4.94 4.94 0 0 0 3.71 4.64c0 4.45-1 4.92-1 4.92h4.24s-1-.47-1.05-4.92A4.94 4.94 0 0 0 19.78 12V4.86ZM18.82 12s0 3-2.75 3c1.08-1 1.53-.41 1.38-3s-.21-6.41-.21-6.41h1.58Z"/>
</svg>