<svg xmlns="http://www.w3.org/2000/svg" viewBox="0 0 30 30">
    <path class="roadmap-background-circle" d="M30 15A15 15 0 1 1 15 0a15 15 0 0 1 15 15" fill="#999"/>
    <g transform="rotate(-90 15 15)">
        <circle class="circle-bg" stroke="#fff" fill="none" stroke-width="3" cx="15" cy="15" r="18"/>
        <circle class="roadmap-circle-progress" stroke="#fff" fill="none" stroke-width="3" stroke-dasharray="113.097" stroke-dashoffset="113.097" cx="15" cy="15" r="18"/>
    </g>
    <path d="M6.25 23.66V26h3.11l-1.64-1.23h-.54v-.45ZM19.9 8.48l-3.21-3.37H6.25v9.45l.93.7V6.32h8.56V12h.7l.88-.95h-.63V6.32l2.74 2.75ZM14.31 26h8.06V12.9l-.94 1.45v10.42H15Z" fill="#fff"/>
    <path fill="#fff" d="m5.82 16.47-2.56 3.48 8.76 6.03L25.16 5.11l-13.73 15.3-5.61-3.94z"/>
</svg>