<svg xmlns="http://www.w3.org/2000/svg" viewBox="0 0 30 30"><title>icon-18</title><g id="Layer_29" data-name="Layer 29"><path class="roadmap-background-circle" d="M30,15A15,15,0,1,1,15,0,15,15,0,0,1,30,15" fill="#999"/><polygon points="10.35 17.38 10.35 26.39 22.98 26.39 22.98 9.02 19.11 9.02 19.11 10.02 22.01 10.02 22.01 25.33 11.32 25.33 11.32 17.38 10.35 17.38" fill="#fff"/><rect x="17.95" y="12.1" width="1.23" height="0.79" fill="#fff"/><rect x="16.2" y="16.15" width="3.57" height="0.79" fill="#fff"/><rect x="12.69" y="20.19" width="5.68" height="0.79" fill="#fff"/><path d="M11.33,4.41a5.85,5.85,0,1,0,5.85,5.84,5.84,5.84,0,0,0-5.85-5.84m0,10.91a5.07,5.07,0,1,1,5.07-5.07,5.06,5.06,0,0,1-5.07,5.07" fill="#fff"/><polygon points="12.5 2.43 10.16 2.43 10.16 3.21 10.94 3.21 10.94 5.15 11.72 5.15 11.72 3.21 12.5 3.21 12.5 2.43" fill="#fff"/><path d="M10.94,10.25a.4.4,0,0,1,.39-.39.39.39,0,0,1,.39.39.38.38,0,0,1-.39.39.39.39,0,0,1-.39-.39" fill="#fff"/><path d="M10.94,9.86a.58.58,0,0,1,.78,0l-.39-3.44Z" fill="#fff"/><path d="M11.86,10.15a.58.58,0,0,1-.44.65l2.12.87Z" fill="#fff"/></g></svg>