<svg xmlns="http://www.w3.org/2000/svg" viewBox="0 0 95.83 78.71"><defs><style>.cls-1{fill:none;}</style></defs><g id="Layer_2" data-name="Layer 2"><g id="Roadmap_4-0_Icon"><g id="Map"><polygon class="cls-1" points="90.32 63.29 90.32 8.65 73.06 16.7 73.06 24.8 67.55 24.8 67.55 16.7 51.05 9 51.05 17.97 45.54 17.97 45.54 8.65 28.28 16.7 28.28 24.8 22.77 24.8 22.77 16.7 5.51 8.65 5.51 63.29 22.77 71.35 22.77 52.92 28.28 52.92 28.28 71.35 45.54 63.29 45.54 60.51 51.05 60.51 51.05 63.65 67.55 71.35 67.55 66.58 73.06 66.58 73.06 71.35 90.32 63.29"/><path d="M70.31,11.91,47.92,1.46,25.52,11.91,0,0V66.8L25.52,78.71l22.4-10.45L70.31,78.71,95.83,66.8V0ZM67.55,66.58v4.77l-16.5-7.7V60.51H45.54v2.78L28.28,71.35V52.92H22.77V71.35L5.51,63.29V8.65l17.26,8.06V24.8h5.51V16.71L45.54,8.65V18h5.51V9l16.5,7.71V24.8h5.51V16.71L90.32,8.65V63.29L73.06,71.35V66.58Z"/></g><g id="Hat_copy" data-name="Hat copy"><path d="M32.11,43.13v3.21s4.52,6.95,16.38,7.21a19.76,19.76,0,0,0,9.93-2.12V46l-9.93,4.37Z"/><path d="M66.84,44.05c-.11-.64-.84-.93-2-.75s-2.34.77-2.2,1.7a85.12,85.12,0,0,1,.58,9.62l-1.79,7.1.34.18a10.28,10.28,0,0,0,4.28,1.16,4.72,4.72,0,0,0,3.57-1.27l.18-.22-2.32-7A87.66,87.66,0,0,0,66.84,44.05Z"/><path d="M49.3,37.48c-3.6,0-6.51-1.46-6.51-3.26S45.7,31,49.3,31s6.51,1.46,6.51,3.25c0,.21,5.39,1.73,10,3l9.81-4.54-27.11-8.6-27.12,8.6L48.49,45.23,60.7,39.56l-7.43-2.75A11.33,11.33,0,0,1,49.3,37.48Z"/></g></g></g></svg>