<?xml version="1.0" encoding="utf-8"?>
<svg xmlns="http://www.w3.org/2000/svg" viewBox="0 0 95.83 78.71">
    <path d="M70.31 11.91 47.92 1.46l-22.4 10.45L0 0v66.8l25.52 11.91 22.4-10.45 22.39 10.45L95.83 66.8V0L70.31 11.91Zm-2.76 54.67v4.77l-16.5-7.7v-3.14h-5.51v2.78l-17.26 8.06V52.92h-5.51v18.43L5.51 63.29V8.65l17.26 8.06v8.09h5.51v-8.09l17.26-8.06V18h5.51V9l16.5 7.71v8.09h5.51v-8.09l17.26-8.06v54.64l-17.26 8.06v-4.77h-5.51Z"/>
    <path d="M32.11 43.13v3.21s4.52 6.95 16.38 7.21c3.44.17 6.86-.56 9.93-2.12V46l-9.93 4.37-16.38-7.24Z"/>
    <path d="M66.84 44.05c-.11-.64-.84-.93-2-.75s-2.34.77-2.2 1.7c.37 3.19.57 6.4.58 9.62l-1.79 7.1.34.18c1.33.69 2.79 1.09 4.28 1.16 1.32.09 2.61-.37 3.57-1.27l.18-.22-2.32-7c0-3.52-.22-7.03-.64-10.52Z"/>
    <path d="M49.3 37.48c-3.6 0-6.51-1.46-6.51-3.26S45.7 31 49.3 31s6.51 1.46 6.51 3.25c0 .21 5.39 1.73 10 3l9.81-4.54-27.11-8.6-27.12 8.6 27.1 12.52 12.21-5.67-7.43-2.75c-1.27.46-2.62.69-3.97.67Z"/>
</svg>